<svg xmlns="http://www.w3.org/2000/svg" width="37.387" height="9.619" viewBox="0 0 37.387 9.619">
  <g id="グループ_542" data-name="グループ 542" transform="translate(0 0)">
    <path id="パス_835" data-name="パス 835" d="M157.407,29.63h.288a4.81,4.81,0,0,1,4.665-4.807v0a4.809,4.809,0,0,0-9.619,0v0a4.809,4.809,0,0,1,4.665,4.807" transform="translate(-152.742 -20.011)" fill="#00a041"/>
    <path id="パス_836" data-name="パス 836" d="M189.213,22.339h-.663v.624h-3.2v.57h3.2v.583h-2.8v2.728h2.209a6.808,6.808,0,0,1-2.609,1.525v.643a8.422,8.422,0,0,0,3.2-2.047v2.086h.663V26.967a8.419,8.419,0,0,0,3.2,2.047V28.37a6.8,6.8,0,0,1-2.609-1.525h2.209V24.117h-2.8v-.583h3.2v-.57h-3.2Zm-2.849,2.309h2.185v.595h-2.185Zm0,1.072h2.185v.595h-2.185Zm5.034.595h-2.185V25.72H191.4Zm0-1.072h-2.185v-.595H191.4Z" transform="translate(-171.878 -21.377)" fill="#898989"/>
    <path id="パス_837" data-name="パス 837" d="M206.747,33.544a6.819,6.819,0,0,1-1.608,1.306v.7a9.017,9.017,0,0,0,2.427-2Z" transform="translate(-183.488 -27.952)" fill="#898989"/>
    <path id="パス_838" data-name="パス 838" d="M217.028,33.544h-.775a8.383,8.383,0,0,0,2.462,2v-.695a8.514,8.514,0,0,1-1.686-1.3" transform="translate(-190.009 -27.952)" fill="#898989"/>
    <path id="パス_839" data-name="パス 839" d="M211.8,28.929h.643V26.738h-5.865v2.191h2.588v1.825c0,.243-.134.31-.326.31h-.8v.57H209c.6,0,.852-.28.852-.7v-2Zm-4.578-1.661H211.8V28.4h-4.578Z" transform="translate(-184.332 -23.958)" fill="#898989"/>
    <path id="パス_840" data-name="パス 840" d="M209.012,22.339h-.69v.624H205.14v.57h7.054v-.57h-3.182Z" transform="translate(-183.488 -21.377)" fill="#898989"/>
    <path id="パス_841" data-name="パス 841" d="M238.127,25.08l.812-2.527h-2.9v6.493h.557V23.091H238.2l-.667,2.026A3.529,3.529,0,0,1,238.413,27a.824.824,0,0,1-.819.885h-.49v.563h.475A1.412,1.412,0,0,0,239.005,27a3.328,3.328,0,0,0-.878-1.917" transform="translate(-201.618 -21.503)" fill="#898989"/>
    <path id="パス_842" data-name="パス 842" d="M228.467,22.352a5.4,5.4,0,0,1-.218.536h-1.295V22.21h-.6v.678h-1.35v.5h1.35v1.056H224.8v.5h1.839a7.591,7.591,0,0,1-1.631,1.043v.61c.121-.056.248-.12.377-.188v2.427h3.475V25.634h-2.244a8.236,8.236,0,0,0,.788-.682h1.456v-.5h-.988a5.97,5.97,0,0,0,1.167-2.1Zm-.159,6.042h-2.327v-.929h2.327Zm0-1.38h-2.327v-.929h2.327Zm-1.354-2.566V23.392h1.028a5.986,5.986,0,0,1-.807,1.056Z" transform="translate(-195.024 -21.301)" fill="#898989"/>
  </g>
</svg>
