<svg xmlns="http://www.w3.org/2000/svg" width="151.148" height="52.902" viewBox="0 0 151.148 52.902"><g transform="translate(107.868 -8.174)"><g transform="translate(-107.868 8.174)" fill="none" stroke="#e0e0e0" stroke-width="1"><rect width="151.148" height="52.902" stroke="none"/><rect x="0.5" y="0.5" width="150.148" height="51.902" fill="none"/></g><g transform="translate(-73.173 24.108)"><path d="M162.944,41.046h.631a10.518,10.518,0,0,1,10.2-10.512v-.005a10.517,10.517,0,0,0-21.035,0v.005a10.517,10.517,0,0,1,10.2,10.512" transform="translate(-152.742 -20.011)" fill="#00a041"/><path d="M193.792,22.339h-1.45V23.7h-6.988v1.247h6.988v1.276h-6.114v5.967h4.831a14.887,14.887,0,0,1-5.7,3.334v1.407a18.417,18.417,0,0,0,6.988-4.477v4.562h1.45V32.459a18.41,18.41,0,0,0,6.988,4.477V35.528a14.879,14.879,0,0,1-5.7-3.334h4.831V26.227h-6.114V24.951h6.988V23.7h-6.988Zm-6.23,5.049h4.778v1.3h-4.778Zm0,2.345h4.778v1.3h-4.778Zm11.008,1.3h-4.778v-1.3h4.778Zm0-2.345h-4.778v-1.3h4.778Z" transform="translate(-155.885 -20.235)" fill="#898989"/><path d="M208.655,33.544a14.913,14.913,0,0,1-3.516,2.856v1.52a19.72,19.72,0,0,0,5.307-4.376Z" transform="translate(-157.792 -21.315)" fill="#898989"/><path d="M217.948,33.544h-1.7a18.331,18.331,0,0,0,5.383,4.372V36.4a18.621,18.621,0,0,1-3.688-2.853" transform="translate(-158.863 -21.315)" fill="#898989"/><path d="M218,31.53H219.4V26.738H206.578V31.53h5.658v3.99c0,.532-.294.677-.712.677h-1.759v1.247h2.116c1.31,0,1.864-.612,1.864-1.53V31.53ZM207.986,27.9H218v2.471h-10.01Z" transform="translate(-157.931 -20.659)" fill="#898989"/><path d="M213.607,22.339H212.1V23.7H205.14v1.247h15.426V23.7h-6.959Z" transform="translate(-157.792 -20.235)" fill="#898989"/><path d="M240.608,28.08l1.776-5.527h-6.347v14.2h1.219V23.729h3.515l-1.458,4.43s1.919,2.143,1.919,4.127a1.8,1.8,0,0,1-1.791,1.936h-1.072v1.232h1.039a3.088,3.088,0,0,0,3.119-3.183,7.279,7.279,0,0,0-1.919-4.191" transform="translate(-160.77 -20.256)" fill="#898989"/><path d="M232.82,22.52a11.812,11.812,0,0,1-.477,1.172h-2.831V22.21h-1.306v1.482h-2.952v1.1h2.952V27.1H224.8v1.1h4.021a16.6,16.6,0,0,1-3.566,2.281v1.335c.264-.122.542-.262.825-.41v5.307h7.6V29.7h-4.907a18.01,18.01,0,0,0,1.722-1.491h3.184V27.1h-2.161a13.056,13.056,0,0,0,2.551-4.583Zm-.347,13.212h-5.088V33.7h5.088Zm0-3.018h-5.088V30.682h5.088ZM229.512,27.1V24.794h2.248A13.087,13.087,0,0,1,230,27.1Z" transform="translate(-159.687 -20.223)" fill="#898989"/></g></g></svg>