<svg xmlns="http://www.w3.org/2000/svg" width="41.4" height="58.732" viewBox="0 0 41.4 58.732">
  <g id="グループ_1035" data-name="グループ 1035" transform="translate(-486.8 -686.323)">
    <g id="グループ_781" data-name="グループ 781" transform="translate(486.8 733.495)">
      <path id="パス_843" data-name="パス 843" d="M530,918.334a2.375,2.375,0,1,1,2.23-2.37,2.178,2.178,0,0,1-2.23,2.37m0-4c-.762,0-1.359.573-1.359,1.627s.591,1.633,1.359,1.633c.8,0,1.365-.622,1.365-1.633s-.567-1.627-1.365-1.627" transform="translate(-527.777 -913.593)" fill="#ff5458"/>
      <path id="パス_844" data-name="パス 844" d="M546.144,918.481l-1.755-2.834-.335-.732.085.993v2.572h-.792v-4.449h.877l1.755,2.834.335.731-.085-.993v-2.572h.792v4.449Z" transform="translate(-538.161 -913.886)" fill="#ff5458"/>
      <path id="パス_845" data-name="パス 845" d="M557.143,918.481v-4.449h3.364v.695h-2.548v1.1h2.352v.64h-2.352v1.317H560.6v.695Z" transform="translate(-547.361 -913.886)" fill="#ff5458"/>
      <path id="パス_846" data-name="パス 846" d="M577.87,916.9h-1.225v1.585h-.822v-4.449h2.047a1.4,1.4,0,0,1,1.517,1.408,1.437,1.437,0,0,1-1.517,1.456m-.122-2.17h-1.1V916.2h1.1a.7.7,0,0,0,.774-.768c0-.537-.341-.707-.774-.707" transform="translate(-559.819 -913.886)" fill="#ff5458"/>
      <path id="パス_847" data-name="パス 847" d="M590.823,918.481l-.329-.957h-1.871l-.329.957h-.908l1.706-4.449h.932l1.706,4.449Zm-1.164-3.358-.1-.39-.1.39-.591,1.712h1.39Z" transform="translate(-567.53 -913.886)" fill="#ff5458"/>
      <path id="パス_848" data-name="パス 848" d="M604.85,918.481c-.091-.085-.147-.152-.147-.475v-.536c0-.317-.1-.731-.573-.731h-1.14v1.743h-.823v-4.449h2.1a1.237,1.237,0,0,1,1.371,1.207,1.145,1.145,0,0,1-.274.762,1.079,1.079,0,0,1-.695.359c.433.061.853.189.853,1.024v.451c0,.445.165.561.286.646Zm-.695-3.754h-1.164v1.316h1.03a.651.651,0,0,0,.737-.695.563.563,0,0,0-.6-.622" transform="translate(-577.388 -913.886)" fill="#ff5458"/>
      <path id="パス_849" data-name="パス 849" d="M614.72,918.481v-4.449h3.364v.695h-2.548v1.1h2.352v.64h-2.352v1.317h2.645v.695Z" transform="translate(-585.758 -913.886)" fill="#ff5458"/>
      <path id="パス_850" data-name="パス 850" d="M630.141,918.481l-1.755-2.834-.335-.732.085.993v2.572h-.792v-4.449h.877l1.755,2.834.335.731-.085-.993v-2.572h.792v4.449Z" transform="translate(-594.178 -913.886)" fill="#ff5458"/>
      <path id="パス_851" data-name="パス 851" d="M642.485,914.727v3.754h-.823v-3.754h-1.585v-.695h3.992v.695Z" transform="translate(-602.67 -913.886)" fill="#ff5458"/>
      <path id="パス_852" data-name="パス 852" d="M561.266,939.391v-2.023h-2.03v2.023h-.823v-4.449h.823v1.73h2.03v-1.73h.823v4.449Z" transform="translate(-548.208 -927.831)" fill="#ff5458"/>
      <path id="パス_853" data-name="パス 853" d="M572.21,939.391v-4.449h3.364v.695h-2.548v1.1h2.352v.64h-2.352V938.7h2.645v.695Z" transform="translate(-557.409 -927.831)" fill="#ff5458"/>
      <path id="パス_854" data-name="パス 854" d="M587.264,939.39l-.329-.957h-1.871l-.329.957h-.908l1.706-4.449h.932l1.706,4.449Zm-1.164-3.358-.1-.39-.1.39-.591,1.712h1.39Z" transform="translate(-565.156 -927.83)" fill="#ff5458"/>
      <path id="パス_855" data-name="パス 855" d="M601.291,939.391c-.091-.085-.146-.152-.146-.475v-.536c0-.317-.1-.731-.573-.731h-1.139v1.743h-.823v-4.449h2.1a1.237,1.237,0,0,1,1.371,1.207,1.145,1.145,0,0,1-.274.762,1.079,1.079,0,0,1-.695.359c.433.061.853.189.853,1.024v.451c0,.445.165.561.286.646Zm-.695-3.754h-1.164v1.316h1.03a.651.651,0,0,0,.737-.695.563.563,0,0,0-.6-.622" transform="translate(-575.015 -927.831)" fill="#ff5458"/>
      <path id="パス_856" data-name="パス 856" d="M612.507,935.637v3.754h-.823v-3.754H610.1v-.695h3.992v.695Z" transform="translate(-582.678 -927.831)" fill="#ff5458"/>
    </g>
    <path id="パス_1305" data-name="パス 1305" d="M579.045,782.79a5.4,5.4,0,1,0-5.4-5.4,5.4,5.4,0,0,0,5.4,5.4" transform="translate(-71.563 -85.658)" fill="#ff5458"/>
    <path id="パス_1306" data-name="パス 1306" d="M564.232,800.829a8.944,8.944,0,0,0-8.841,6.738h-.043a9.009,9.009,0,0,0-8.841-6.738,8.513,8.513,0,0,0-8.368,8.712c0,5.75,3.133,10,6.351,13.9,1.734,2.1,4.428,5.07,6.739,7.557l3.676-3.9c-.941-.981-2.785-2.964-3.8-4.187-1.26-1.529-2.487-3.193-2.487-5.445a3.333,3.333,0,0,1,3.276-3.411,3.527,3.527,0,0,1,3.462,2.638h.017a3.5,3.5,0,0,1,3.462-2.638,3.333,3.333,0,0,1,3.276,3.411c0,2.252-1.227,3.916-2.487,5.445-1.21,1.462-3.63,4.017-4.251,4.638l-3.7,3.932.048.052a4.908,4.908,0,0,0,7.153.02c2.49-2.631,5.661-6.04,7.372-8.108,3.218-3.905,6.351-8.154,6.351-13.9a8.513,8.513,0,0,0-8.368-8.712m-8.863,13.559a2.909,2.909,0,1,1,2.909-2.909,2.909,2.909,0,0,1-2.909,2.909" transform="translate(-47.887 -104.897)" fill="#ff5458"/>
  </g>
</svg>
