<svg xmlns="http://www.w3.org/2000/svg" xmlns:xlink="http://www.w3.org/1999/xlink" width="54" height="54" viewBox="0 0 54 54"><defs><clipPath id="a"><circle cx="27" cy="27" r="27" transform="translate(3.31 2.623)" fill="#fff"/></clipPath><clipPath id="b"><rect width="35.416" height="35.394" fill="none"/></clipPath></defs><g transform="translate(-3.31 -2.623)"><g clip-path="url(#a)"><path d="M29.882,0A29.882,29.882,0,1,1,0,29.882,29.882,29.882,0,0,1,29.882,0Z" fill="#fff"/></g><g transform="translate(15.698 12.613)"><g clip-path="url(#b)"><path d="M21.587,0c.208.059.416.115.623.177a4.022,4.022,0,0,1,2.879,3.851c.02,4.932.01,9.864,0,14.8a1.106,1.106,0,1,1-2.208-.02q0-7.26,0-14.52a2.029,2.029,0,0,0-.516-1.493,1.781,1.781,0,0,0-1.324-.578q-8.487,0-16.974,0a1.832,1.832,0,0,0-1.845,1.95q0,10.942,0,21.884c0,.265,0,.53,0,.8a1.841,1.841,0,0,0,1.914,1.918q4.857.006,9.714,0c.311,0,.623-.007.933,0a1.1,1.1,0,0,1,1.094,1.107,1.093,1.093,0,0,1-1.1,1.1c-3.641.006-7.283.03-10.924-.011a4.018,4.018,0,0,1-3.839-3.9c-.019-.887,0-1.775,0-2.662,0-6.7.026-13.391-.014-20.086A4.157,4.157,0,0,1,3.452.049.292.292,0,0,0,3.541,0Z" transform="translate(0)"/><path d="M206.386,191.008a4.036,4.036,0,0,1-1.279,1.955q-5.048,5.021-10.065,10.073a2.5,2.5,0,0,1-1.458.759c-1.284.2-2.563.439-3.843.665a1.1,1.1,0,0,1-1.348-1.336c.238-1.4.488-2.788.725-4.183a1.654,1.654,0,0,1,.493-.923q5.358-5.346,10.712-10.7a4.438,4.438,0,0,1,.983-.747,1.971,1.971,0,0,1,2.4.3,25.3,25.3,0,0,1,1.992,2.013,6.378,6.378,0,0,1,.691,1.362Zm-4.135-2.466c-.123.111-.236.2-.34.309q-5.229,5.229-10.455,10.46c-.072.072-.17.151-.187.24-.153.807-.29,1.617-.439,2.467.777-.135,1.5-.246,2.221-.394a1.159,1.159,0,0,0,.551-.3q5.141-5.121,10.266-10.258c.065-.065.133-.128.193-.2a.356.356,0,0,0-.008-.527c-.59-.6-1.187-1.186-1.8-1.8" transform="translate(-170.97 -169.088)"/><path d="M56.158,129.992c-2.269,0-4.538.006-6.807-.008a1.782,1.782,0,0,1-.788-.187,1.033,1.033,0,0,1-.486-1.187,1.086,1.086,0,0,1,.99-.825c.069,0,.138-.005.207-.005q6.876,0,13.752,0a1.144,1.144,0,0,1,1.1.573,1.091,1.091,0,0,1-.683,1.591,2.333,2.333,0,0,1-.548.05q-3.369,0-6.738,0" transform="translate(-43.602 -115.973)"/><path d="M53.2,193.831q-1.951,0-3.9,0a1.112,1.112,0,1,1,.006-2.212q3.97,0,7.941,0a1.105,1.105,0,0,1,.268,2.185,2,2,0,0,1-.412.025q-1.951,0-3.9,0" transform="translate(-43.631 -173.917)"/><path d="M52.449,66.031c-1.117,0-2.235.009-3.352,0a1.094,1.094,0,0,1-.49-2.056,1.14,1.14,0,0,1,.492-.139c2.235-.009,4.47-.014,6.7,0a1.069,1.069,0,0,1,1.038.815,1.026,1.026,0,0,1-.434,1.177,1.575,1.575,0,0,1-.745.2c-1.071.022-2.143.009-3.214.009v0" transform="translate(-43.595 -57.927)"/><path d="M226.419,210.589c.615.613,1.211,1.2,1.8,1.8a.356.356,0,0,1,.008.527c-.059.07-.128.133-.193.2q-5.13,5.132-10.266,10.258a1.159,1.159,0,0,1-.551.3c-.718.149-1.445.26-2.221.394.149-.85.286-1.66.439-2.467.017-.089.115-.168.187-.24q5.226-5.232,10.455-10.46c.1-.1.218-.2.34-.309" transform="translate(-195.137 -191.136)" fill="#ff0"/></g></g></g></svg>