<svg xmlns="http://www.w3.org/2000/svg" xmlns:xlink="http://www.w3.org/1999/xlink" width="60.041" height="42.822" viewBox="0 0 60.041 42.822">
  <defs>
    <clipPath id="clip-path">
      <rect id="長方形_187" data-name="長方形 187" width="60.041" height="42.822" fill="none"/>
    </clipPath>
  </defs>
  <g id="グループ_589" data-name="グループ 589" transform="translate(34)">
    <g id="グループ_588" data-name="グループ 588" transform="translate(-34)" clip-path="url(#clip-path)">
      <path id="パス_1277" data-name="パス 1277" d="M194.576,66.731l0,10.851-2.353-2.355a.759.759,0,0,0-1.071,0L170.509,95.872,165.434,90.8l18.643-18.644a.754.754,0,0,0,0-1.069c-.018-.018-.037-.036-.057-.051l.936-.934.014.014a.756.756,0,0,0,1.069-1.069l-2.314-2.316Z" transform="translate(-135.244 -54.069)" fill="#ff0"/>
      <path id="パス_1274" data-name="パス 1274" d="M63.618,59.543H59.809a.344.344,0,0,1-.344-.344v-.637a.344.344,0,0,1,.344-.344h3.809a.344.344,0,0,0,.344-.344V56.739a.344.344,0,0,0-.344-.344H59.809a.344.344,0,0,1-.344-.344v-.612a.344.344,0,0,1,.344-.344h3.018a.344.344,0,0,0,.306-.5L59.1,46.655a.344.344,0,0,1,.306-.5h1.616a.344.344,0,0,1,.313.2l2.081,4.594c.55,1.224,1.074,2.448,1.673,3.772h.125c.6-1.324,1.124-2.548,1.7-3.772l2.106-4.595a.344.344,0,0,1,.312-.2h1.515a.343.343,0,0,1,.305.5L67.066,54.6a.344.344,0,0,0,.306.5h3.065a.344.344,0,0,1,.344.344v.612a.344.344,0,0,1-.344.344H66.578a.343.343,0,0,0-.344.344v1.136a.343.343,0,0,0,.344.344h3.859a.344.344,0,0,1,.344.344V59.2a.344.344,0,0,1-.344.344H66.578a.343.343,0,0,0-.344.344V63.62a.344.344,0,0,1-.344.344H64.305a.344.344,0,0,1-.344-.344V59.886a.344.344,0,0,0-.344-.344" transform="translate(-48.568 -37.958)"/>
      <path id="パス_1275" data-name="パス 1275" d="M16.521,33.042a16.541,16.541,0,0,1-4.591-.647.716.716,0,1,1,.4-1.375,15.09,15.09,0,1,0-2.012-.741.716.716,0,0,1-.59,1.3,16.529,16.529,0,1,1,6.8,1.458"/>
      <path id="パス_1276" data-name="パス 1276" d="M187.631,58.975l0,12.362a1.2,1.2,0,0,1-2.048.849l-2.355-2.353L162.585,90.478a.757.757,0,0,1-1.069,0l-6.146-6.144a.757.757,0,0,1,0-1.069l19.179-19.179a.757.757,0,0,1,1.012-.052c.02.016.039.034.057.052a.754.754,0,0,1,0,1.069L156.976,83.8l5.075,5.075,20.644-20.646a.759.759,0,0,1,1.071,0l2.353,2.355,0-10.851-10.851,0,2.314,2.316a.756.756,0,0,1-1.069,1.069L176.5,63.1l-2.837-2.837a1.2,1.2,0,0,1,.849-2.046l12.364,0a.758.758,0,0,1,.757.757" transform="translate(-127.592 -47.877)"/>
    </g>
  </g>
</svg>
