<svg xmlns="http://www.w3.org/2000/svg" xmlns:xlink="http://www.w3.org/1999/xlink" width="4.274" height="7.438" viewBox="0 0 4.274 7.438"><defs><clipPath id="a"><rect width="7.438" height="4.274" fill="none"/></clipPath></defs><g transform="translate(0 19.173) rotate(-90)"><g transform="translate(11.735 0)" clip-path="url(#a)"><path d="M3.75,2.992c.046-.055.08-.1.121-.144L6.515.2A.514.514,0,0,1,7.052.057a.506.506,0,0,1,.372.4.517.517,0,0,1-.157.5L6.259,1.966,4.172,4.052a.548.548,0,0,1-.88,0Q1.741,2.5.189.95A.54.54,0,0,1,.271.069.541.541,0,0,1,.934.179Q1.559.8,2.18,1.426L3.646,2.9c.026.026.054.05.1.1" transform="translate(0 0)"/></g></g></svg>