<svg xmlns="http://www.w3.org/2000/svg" xmlns:xlink="http://www.w3.org/1999/xlink" width="48" height="48" viewBox="0 0 48 48"><defs><clipPath id="a"><rect width="18.612" height="10.696" fill="#fff"/></clipPath></defs><circle cx="24" cy="24" r="24" fill="#ff5458"/><g transform="translate(18.246 33.306) rotate(-90)"><g clip-path="url(#a)"><path d="M9.385,7.488c.115-.137.2-.257.3-.36Q12.994,3.817,16.3.51A1.285,1.285,0,0,1,17.646.143a1.266,1.266,0,0,1,.931,1A1.294,1.294,0,0,1,18.186,2.4L15.663,4.919q-2.611,2.611-5.222,5.222a1.371,1.371,0,0,1-2.2,0Q4.356,6.261.474,2.377A1.351,1.351,0,0,1,.678.171,1.354,1.354,0,0,1,2.336.448Q3.9,2,5.455,3.569L9.125,7.245c.065.065.135.126.26.242" transform="translate(0 0)" fill="#fff"/></g></g></svg>