<svg id="グループ_672" data-name="グループ 672" xmlns="http://www.w3.org/2000/svg" xmlns:xlink="http://www.w3.org/1999/xlink" width="28.041" height="28.041" viewBox="0 0 28.041 28.041">
  <defs>
    <clipPath id="clip-path">
      <rect id="長方形_206" data-name="長方形 206" width="16.617" height="16.606" fill="none"/>
    </clipPath>
  </defs>
  <g id="楕円形_20" data-name="楕円形 20" transform="translate(0)" fill="#fff" stroke="#ff5458" stroke-width="1">
    <ellipse cx="14.02" cy="14.02" rx="14.02" ry="14.02" stroke="none"/>
    <ellipse cx="14.02" cy="14.02" rx="13.52" ry="13.52" fill="none"/>
  </g>
  <g id="グループ_673" data-name="グループ 673" transform="translate(7.365 5.918)">
    <g id="グループ_672-2" data-name="グループ 672" clip-path="url(#clip-path)">
      <path id="パス_1280" data-name="パス 1280" d="M10.129,0c.1.028.2.054.292.083A1.887,1.887,0,0,1,11.771,1.89c.009,2.314,0,4.628,0,6.942a.519.519,0,1,1-1.036-.009q0-3.406,0-6.813a.952.952,0,0,0-.242-.7.836.836,0,0,0-.621-.271q-3.982,0-7.964,0a.86.86,0,0,0-.866.915q0,5.134,0,10.268c0,.124,0,.249,0,.373a.864.864,0,0,0,.9.9q2.279,0,4.558,0c.146,0,.292,0,.438,0a.518.518,0,0,1,.513.52.513.513,0,0,1-.517.515c-1.709,0-3.417.014-5.126-.005A1.885,1.885,0,0,1,.009,12.7c-.009-.416,0-.833,0-1.249C.007,8.309.019,5.167,0,2.026a1.951,1.951,0,0,1,1.62-2A.137.137,0,0,0,1.661,0Z" transform="translate(0)"/>
      <path id="パス_1281" data-name="パス 1281" d="M196.823,188.507a1.894,1.894,0,0,1-.6.917q-2.368,2.356-4.722,4.726a1.173,1.173,0,0,1-.684.356c-.6.094-1.2.206-1.8.312a.518.518,0,0,1-.633-.627c.112-.655.229-1.308.34-1.963a.776.776,0,0,1,.231-.433q2.514-2.508,5.026-5.019a2.081,2.081,0,0,1,.461-.351.925.925,0,0,1,1.125.141,11.87,11.87,0,0,1,.934.945,2.993,2.993,0,0,1,.324.639Zm-1.94-1.157c-.058.052-.111.1-.16.145l-4.906,4.908c-.034.034-.08.071-.088.113-.072.379-.136.759-.206,1.157.364-.063.705-.115,1.042-.185a.544.544,0,0,0,.258-.141q2.412-2.4,4.817-4.813c.031-.031.063-.06.09-.093a.167.167,0,0,0,0-.247c-.277-.28-.557-.556-.845-.844" transform="translate(-180.206 -178.223)"/>
      <path id="パス_1282" data-name="パス 1282" d="M51.849,128.816c-1.065,0-2.129,0-3.194,0a.836.836,0,0,1-.37-.088.485.485,0,0,1-.228-.557.509.509,0,0,1,.465-.387c.032,0,.065,0,.1,0q3.226,0,6.452,0a.537.537,0,0,1,.516.269.512.512,0,0,1-.32.747,1.094,1.094,0,0,1-.257.023q-1.581,0-3.161,0" transform="translate(-45.958 -122.238)"/>
      <path id="パス_1283" data-name="パス 1283" d="M50.48,192.656h-1.83a.522.522,0,1,1,0-1.038q1.863,0,3.726,0a.518.518,0,0,1,.126,1.025.939.939,0,0,1-.193.012H50.48" transform="translate(-45.988 -183.313)"/>
      <path id="パス_1284" data-name="パス 1284" d="M50.1,64.858c-.524,0-1.049,0-1.573,0a.513.513,0,0,1-.23-.965.535.535,0,0,1,.231-.065c1.049,0,2.1-.007,3.146,0a.5.5,0,0,1,.487.382.481.481,0,0,1-.2.552.739.739,0,0,1-.35.1c-.5.01-1.005,0-1.508,0v0" transform="translate(-45.95 -61.056)"/>
      <path id="パス_1285" data-name="パス 1285" d="M220.356,210.589c.289.288.568.564.845.844a.167.167,0,0,1,0,.247c-.028.033-.06.062-.09.093q-2.407,2.408-4.817,4.813a.544.544,0,0,1-.258.141c-.337.07-.678.122-1.042.185.07-.4.134-.779.206-1.158.008-.042.054-.079.088-.113l4.906-4.908c.049-.049.1-.093.16-.145" transform="translate(-205.679 -201.462)" fill="#ff0"/>
    </g>
  </g>
</svg>
