<svg id="グループ_913" data-name="グループ 913" xmlns="http://www.w3.org/2000/svg" width="37.912" height="37.952" viewBox="0 0 37.912 37.952">
  <circle id="楕円形_18" data-name="楕円形 18" cx="17.815" cy="17.815" r="17.815" transform="translate(1.555 2.322)" fill="#ff0"/>
  <g id="グループ_583" data-name="グループ 583" transform="translate(0)">
    <path id="パス_1255" data-name="パス 1255" d="M235.041,139.955a.574.574,0,0,0,.245-.47.564.564,0,0,0-.17-.4.805.805,0,0,0-.578-.212h0l-2.546.008a.67.67,0,0,0-.748.619.576.576,0,0,0,.249.47.852.852,0,0,0,.5.145h0l2.545-.008a.851.851,0,0,0,.5-.147Z" transform="translate(-200.795 -120.586)"/>
    <path id="パス_1256" data-name="パス 1256" d="M218.882,83.771a.64.64,0,0,0,.167.021.883.883,0,0,0,.442-.129l2.2-1.28a.85.85,0,0,0,.361-.379.58.58,0,0,0-.022-.531.567.567,0,0,0-.349-.265.806.806,0,0,0-.61.108l-2.2,1.28a.671.671,0,0,0-.338.91A.567.567,0,0,0,218.882,83.771Z" transform="translate(-189.694 -70.498)"/>
    <path id="パス_1257" data-name="パス 1257" d="M184.156,42.443a.56.56,0,0,0,.28.075.605.605,0,0,0,.25-.055.846.846,0,0,0,.377-.363l1.265-2.208a.852.852,0,0,0,.122-.51.57.57,0,0,0-.719-.5.811.811,0,0,0-.474.4l-1.265,2.209a.671.671,0,0,0,.162.957Z" transform="translate(-159.659 -33.743)"/>
    <path id="パス_1258" data-name="パス 1258" d="M136.987,27.555h0a.576.576,0,0,0,.47-.249.846.846,0,0,0,.145-.5l-.008-2.545a.842.842,0,0,0-.149-.5.578.578,0,0,0-.469-.245h0a.576.576,0,0,0-.47.249.844.844,0,0,0-.145.5l.008,2.545a.671.671,0,0,0,.617.748Z" transform="translate(-118.407 -20.415)"/>
    <path id="パス_1259" data-name="パス 1259" d="M80.716,42.944A.552.552,0,0,0,81,42.866a.576.576,0,0,0,.282-.45.851.851,0,0,0-.126-.508l-1.28-2.2a.85.85,0,0,0-.379-.361.58.58,0,0,0-.531.022.567.567,0,0,0-.265.349.806.806,0,0,0,.108.61l1.28,2.2a.757.757,0,0,0,.628.416Z" transform="translate(-68.318 -34.12)"/>
    <path id="パス_1260" data-name="パス 1260" d="M36.768,83.148l2.209,1.265a.892.892,0,0,0,.44.125.573.573,0,0,0,.537-.819.846.846,0,0,0-.363-.377l-2.209-1.265a.852.852,0,0,0-.51-.122.57.57,0,0,0-.5.719.816.816,0,0,0,.4.474Z" transform="translate(-31.563 -71.162)"/>
    <path id="パス_1261" data-name="パス 1261" d="M21.177,139.92a.569.569,0,0,0,0,.808.805.805,0,0,0,.578.212h0l2.546-.008a.669.669,0,0,0,.748-.619.564.564,0,0,0-.17-.4.809.809,0,0,0-.577-.211h0l-2.545.008a.811.811,0,0,0-.581.215Z" transform="translate(-18.244 -121.307)"/>
    <path id="パス_1262" data-name="パス 1262" d="M37.215,189.591a.64.64,0,0,0,.167.021.883.883,0,0,0,.442-.129l2.2-1.28a.85.85,0,0,0,.361-.379.576.576,0,0,0-.022-.531.568.568,0,0,0-.349-.265.806.806,0,0,0-.61.108l-2.2,1.28a.85.85,0,0,0-.361.379.576.576,0,0,0,.022.531A.567.567,0,0,0,37.215,189.591Z" transform="translate(-31.946 -162.386)"/>
    <path id="パス_1263" data-name="パス 1263" d="M79.749,224.907a.561.561,0,0,0,.282.075.555.555,0,0,0,.153-.021.816.816,0,0,0,.474-.4l1.265-2.209a.671.671,0,0,0-.162-.957.568.568,0,0,0-.434-.054.81.81,0,0,0-.473.4l-1.265,2.209a.852.852,0,0,0-.122.51.576.576,0,0,0,.284.448Z" transform="translate(-69 -192.183)"/>
    <path id="パス_1264" data-name="パス 1264" d="M137.786,233.741h0a.576.576,0,0,0-.47.249.843.843,0,0,0-.145.5l.008,2.545a.843.843,0,0,0,.149.5.578.578,0,0,0,.469.245h0a.564.564,0,0,0,.4-.17.815.815,0,0,0,.212-.582l-.008-2.546a.67.67,0,0,0-.617-.748Z" transform="translate(-119.11 -202.966)"/>
    <path id="パス_1265" data-name="パス 1265" d="M185.908,224.191a.857.857,0,0,0,.379.361.611.611,0,0,0,.246.054.567.567,0,0,0,.548-.425.806.806,0,0,0-.108-.61l-1.28-2.2a.67.67,0,0,0-.91-.338.568.568,0,0,0-.265.349.806.806,0,0,0,.108.61l1.28,2.2Z" transform="translate(-160.206 -191.865)"/>
    <path id="パス_1266" data-name="パス 1266" d="M219.249,187.563l2.208,1.265a.9.9,0,0,0,.438.126.427.427,0,0,0,.071,0,.57.57,0,0,0,.5-.719.816.816,0,0,0-.4-.474l-2.209-1.265a.671.671,0,0,0-.957.162.576.576,0,0,0-.02.531.846.846,0,0,0,.363.377Z" transform="translate(-190.019 -161.83)"/>
    <path id="パス_1267" data-name="パス 1267" d="M107.114,71.135l1.908-10.421a.64.64,0,1,0-1.26-.23L105.9,70.657l-4.842,3.619a.641.641,0,0,0,.384,1.153.632.632,0,0,0,.383-.128l5.043-3.771a.638.638,0,0,0,.246-.4Z" transform="translate(-87.529 -52.064)"/>
    <path id="パス_1268" data-name="パス 1268" d="M32.307,5.5A18.827,18.827,0,0,0,18.957,0h-.075A18.956,18.956,0,0,0,5.6,32.411a18.827,18.827,0,0,0,13.35,5.5h.075a19,19,0,0,0,17.24-11.225.64.64,0,1,0-1.169-.523A17.72,17.72,0,0,1,19.023,36.632h-.07A17.677,17.677,0,0,1,6.407,6.505,17.564,17.564,0,0,1,18.886,1.28h.07a17.69,17.69,0,0,1,17,22.523.641.641,0,1,0,1.232.35A18.985,18.985,0,0,0,32.307,5.5Z" transform="translate(0.001)"/>
  </g>
</svg>
