<svg id="グループ_587" data-name="グループ 587" xmlns="http://www.w3.org/2000/svg" xmlns:xlink="http://www.w3.org/1999/xlink" width="60.106" height="37.581" viewBox="0 0 60.106 37.581">
  <defs>
    <clipPath id="clip-path">
      <rect id="長方形_186" data-name="長方形 186" width="60.106" height="37.581" fill="none"/>
    </clipPath>
  </defs>
  <g id="グループ_586" data-name="グループ 586" clip-path="url(#clip-path)">
    <path id="パス_1269" data-name="パス 1269" d="M121.815,14.337a2,2,0,0,0-1.784,1.1,2.263,2.263,0,0,0-.131,1.747,2.2,2.2,0,0,0,2.7,1.5,2.008,2.008,0,0,0,1.185-1.007,2.31,2.31,0,0,0-1.972-3.341" transform="translate(-104.499 -12.508)" fill="#ff0"/>
    <path id="パス_1270" data-name="パス 1270" d="M21.864,81.547a.7.7,0,0,1,.4.124,4.09,4.09,0,0,1,.556.558c.4.435,1.147,1.244,2.428,2.541a.683.683,0,0,1,.195.529l-.494,6.777a.679.679,0,0,1-.011.083,1.624,1.624,0,0,0,.182,1.22.852.852,0,0,0,.6.361c.268.041.892.135,1.1-.96.039-.257.765-4.967,1.394-9-.312-.358-.929-1.067-1.547-1.777-.439-.505-.878-1.011-1.207-1.392-.165-.192-.3-.352-.4-.465-.209-.245-.36-.422-.3-.743,0-.009,0-.018.005-.027l1.393-6.312a.691.691,0,0,1,1.2-.3l2.919,3.418a.808.808,0,0,0,1.094.122l4.019-3a.994.994,0,0,0,.149-1.408,1.043,1.043,0,0,0-1.44-.108l-2.471,1.917a.7.7,0,0,1-.958-.108l-4.415-5.28-.01-.012a.679.679,0,0,1-.049-.07,3.179,3.179,0,0,0-2.058-1.458.7.7,0,0,1-.106-.032,4.933,4.933,0,0,0-1.9-.235c-1.029.135-6.2,1.1-6.25,1.107a.833.833,0,0,0-.638.6l-1.56,5.923a.995.995,0,0,0,1.928.49l1.141-4.895a.681.681,0,0,1,.2-.349.692.692,0,0,1,.353-.175l4.17-.7a.683.683,0,0,1,.227,1.346l-.676.114-.041.21-.32,1.638c-.265,1.355-.618,3.161-.971,4.967l-1.414,7.222a.683.683,0,0,1-.26.414l-5.754,4.329-.015.011-.829.589a.635.635,0,0,0-.258.412.523.523,0,0,0,.089.4c.432.6,1.289.253,1.727-.045l7-4.594,1.225-3.516a.7.7,0,0,1,.4-.419.686.686,0,0,1,.246-.046" transform="translate(-9.077 -58.009)" fill="#ff0"/>
    <path id="パス_1271" data-name="パス 1271" d="M85.713,142.567H64.589a.683.683,0,1,1,0-1.365H85.031v-9.617a.683.683,0,0,1,.683-.683H96.888v-9.877a.683.683,0,0,1,.683-.683h17.6a.683.683,0,0,1,0,1.365H98.254v9.877a.683.683,0,0,1-.683.683H86.4v9.617a.683.683,0,0,1-.683.683" transform="translate(-55.751 -104.986)"/>
    <path id="パス_1272" data-name="パス 1272" d="M16.134,85.152a2.769,2.769,0,0,1-.416-.032,2.211,2.211,0,0,1-1.515-.926,2.95,2.95,0,0,1-.412-2.227l.469-6.429c-.89-.906-1.505-1.559-1.917-2l-.937,2.689a.683.683,0,0,1-.27.346L3.948,81.286c-1.331.9-2.811.787-3.591-.289a1.883,1.883,0,0,1-.33-1.422,2.009,2.009,0,0,1,.815-1.3l.821-.583L7.2,73.523c.8-4.06,2.122-10.838,2.6-13.275l-1.613.272L7.141,64.993a2.36,2.36,0,1,1-4.576-1.158l1.561-5.927a2.208,2.208,0,0,1,1.7-1.6c.22-.041,5.264-.981,6.329-1.12a6.3,6.3,0,0,1,2.519.3,4.532,4.532,0,0,1,2.859,2.024l3.973,4.751,1.957-1.518a2.415,2.415,0,0,1,3.335.323,2.36,2.36,0,0,1-.38,3.359l-4.029,3a2.176,2.176,0,0,1-2.949-.33L17.4,64.712l-1.028,4.661c.561.654,2.169,2.5,3.282,3.781a.683.683,0,0,1,.16.554c-.657,4.21-1.444,9.322-1.444,9.322s0,.014,0,.021a2.271,2.271,0,0,1-2.233,2.1M12.068,71.576a.7.7,0,0,1,.4.124,4.094,4.094,0,0,1,.556.558c.4.435,1.147,1.244,2.428,2.541a.683.683,0,0,1,.195.529l-.494,6.777a.676.676,0,0,1-.011.083,1.624,1.624,0,0,0,.182,1.22.852.852,0,0,0,.6.361c.268.041.892.136,1.1-.96.039-.257.765-4.967,1.394-9-.312-.358-.929-1.067-1.547-1.777-.439-.505-.878-1.011-1.207-1.392-.166-.192-.3-.352-.4-.465-.209-.245-.36-.422-.3-.743,0-.009,0-.018.005-.027l1.393-6.312a.691.691,0,0,1,1.2-.3l2.919,3.418a.808.808,0,0,0,1.094.122l4.019-3a.994.994,0,0,0,.149-1.408,1.043,1.043,0,0,0-1.44-.108L21.831,63.74a.7.7,0,0,1-.958-.109l-4.415-5.28-.01-.012a.653.653,0,0,1-.049-.07,3.179,3.179,0,0,0-2.058-1.458.7.7,0,0,1-.106-.032,4.933,4.933,0,0,0-1.9-.235c-1.029.135-6.2,1.1-6.25,1.107a.833.833,0,0,0-.638.6l-1.56,5.923a.995.995,0,0,0,1.928.49l1.141-4.895a.68.68,0,0,1,.2-.349.693.693,0,0,1,.353-.175l4.17-.7a.683.683,0,0,1,.227,1.346l-.676.114c-.012.064-.026.134-.041.21l-.32,1.638c-.265,1.355-.618,3.161-.971,4.967L8.49,74.043a.684.684,0,0,1-.26.414L2.476,78.786l-.015.011-.829.589a.635.635,0,0,0-.258.412.524.524,0,0,0,.089.4c.432.6,1.289.253,1.727-.045l7-4.594,1.225-3.516a.7.7,0,0,1,.4-.419.684.684,0,0,1,.246-.046" transform="translate(0 -48.119)"/>
    <path id="パス_1273" data-name="パス 1273" d="M110.206,7.17A3.626,3.626,0,0,1,106.8,4.63a3.618,3.618,0,0,1,.217-2.793A3.364,3.364,0,0,1,109.007.154a3.572,3.572,0,0,1,4.411,2.386,3.618,3.618,0,0,1-.217,2.793,3.361,3.361,0,0,1-2.994,1.837m-.192-5.805a2,2,0,0,0-1.784,1.1A2.264,2.264,0,0,0,108.1,4.21a2.2,2.2,0,0,0,2.7,1.5,2.007,2.007,0,0,0,1.185-1.007,2.262,2.262,0,0,0,.131-1.747,2.256,2.256,0,0,0-2.1-1.595" transform="translate(-93.013 0)"/>
  </g>
</svg>
