<svg xmlns="http://www.w3.org/2000/svg" xmlns:xlink="http://www.w3.org/1999/xlink" width="55" height="55" viewBox="0 0 55 55"><defs><clipPath id="a"><rect width="34.233" height="23.129" fill="none"/></clipPath></defs><g transform="translate(-403.589 -4654.184)"><g transform="translate(401.173 4651.862)"><path d="M27.5,0A27.5,27.5,0,1,1,0,27.5,27.5,27.5,0,0,1,27.5,0Z" transform="translate(2.416 2.322)" fill="#fff"/><g transform="translate(12.765 18.317)"><g clip-path="url(#a)"><path d="M50.819,47.3l-2.046-2.524-5.021-6.2c-.273-.337-.542-.435-.843-.309a.648.648,0,0,0-.2,1.057q1.378,1.713,2.766,3.419l4.243,5.241c.06.074.115.153.195.261H20.993c.091-.118.165-.217.242-.313l6.906-8.533a1.933,1.933,0,0,0,.139-.181.639.639,0,0,0-.116-.852.622.622,0,0,0-.879.066c-.336.383-.649.788-.97,1.184l-5.923,7.318c-.087.107-.177.211-.306.364V29.418c.115.082.208.146.3.214L33.542,39.5a3.034,3.034,0,0,0,3.823.005q6.568-4.923,13.132-9.85c.094-.071.191-.138.322-.232Z" transform="translate(-18.339 -26.858)" fill="#fff"/><path d="M32.411,19.916H60.984c-.1.092-.167.155-.238.207q-6.457,4.847-12.916,9.691a1.757,1.757,0,0,1-2.251,0L32.715,20.16c-.083-.063-.163-.131-.3-.244" transform="translate(-29.59 -18.183)" fill="#ff0"/><path d="M17.388,23.129H2.291A2.206,2.206,0,0,1,.032,21.441L0,21.362V1.739l.058-.1c.051-.088.1-.182.149-.281A3.425,3.425,0,0,1,.66.632,2.141,2.141,0,0,1,2.35,0Q5.64,0,8.92,0H31.9A2.175,2.175,0,0,1,34.2,1.776a2.812,2.812,0,0,1,.036.535q0,9.253,0,18.506a2.159,2.159,0,0,1-2.3,2.31H17.388m13.291-2.181L26.8,16.155l-.753-.929c-.661-.816-1.344-1.659-2.014-2.491a1.174,1.174,0,0,1-.25-1.025A1.045,1.045,0,0,1,24.4,11a1.066,1.066,0,0,1,.412-.086,1.21,1.21,0,0,1,.936.523l5.021,6.2,1.272,1.57V3.426L28.168,6.335Q23.728,9.666,19.288,13a3.467,3.467,0,0,1-4.345-.005L2.183,3.421v15.8L7.639,12.48l.253-.315c.233-.292.475-.593.728-.882a1.046,1.046,0,0,1,.8-.365,1.076,1.076,0,0,1,.895,1.67,1.828,1.828,0,0,1-.142.19L3.556,20.948ZM4.105,2.169,16.25,11.282a1.442,1.442,0,0,0,.866.322h0a1.436,1.436,0,0,0,.863-.32q6.075-4.556,12.148-9.115Z"/></g></g></g></g></svg>