<svg xmlns="http://www.w3.org/2000/svg" xmlns:xlink="http://www.w3.org/1999/xlink" width="75.752" height="75.752" viewBox="0 0 75.752 75.752"><defs><clipPath id="a"><rect width="43.391" height="29.317" fill="none"/></clipPath></defs><g transform="translate(-1279 -768)"><g transform="translate(1279 768)" fill="#fff" stroke="#333" stroke-width="3"><circle cx="37.876" cy="37.876" r="37.876" stroke="none"/><circle cx="37.876" cy="37.876" r="36.376" fill="none"/></g><g transform="translate(1295.18 791.217)"><g clip-path="url(#a)"><path d="M59.041,52.082c-.9-1.111-1.747-2.155-2.593-3.2l-6.365-7.863c-.346-.427-.687-.551-1.068-.392a.822.822,0,0,0-.254,1.34q1.747,2.172,3.506,4.334l5.378,6.643c.076.094.145.194.247.331H21.236c.115-.149.209-.275.307-.4L30.3,42.063a2.45,2.45,0,0,0,.176-.229.81.81,0,0,0-.147-1.08.788.788,0,0,0-1.114.083c-.426.486-.822,1-1.229,1.5l-7.507,9.276c-.11.136-.224.267-.388.461V29.418c.145.1.263.185.378.271L37.142,42.2a3.845,3.845,0,0,0,4.846.007q8.325-6.24,16.645-12.485c.119-.089.242-.174.409-.294Z" transform="translate(-17.871 -26.173)" fill="#fff"/><path d="M32.411,19.916H68.628c-.133.116-.212.2-.3.263q-8.184,6.143-16.371,12.284a2.227,2.227,0,0,1-2.854,0L32.8,20.225c-.106-.08-.207-.165-.385-.309" transform="translate(-28.835 -17.719)" fill="#ff0"/><path d="M22.04,29.317l-19.136,0c-1.434,0-2.236-.6-2.863-2.139L0,27.076V2.2l.073-.127C.137,1.965.2,1.846.262,1.72A4.342,4.342,0,0,1,.836.8,2.713,2.713,0,0,1,2.979,0q4.169,0,8.327,0H40.435a2.757,2.757,0,0,1,2.909,2.248,3.564,3.564,0,0,1,.046.678q0,11.728,0,23.457a2.737,2.737,0,0,1-2.912,2.928l-18.438,0m16.847-2.765-4.919-6.076L33.014,19.3c-.838-1.034-1.7-2.1-2.552-3.157a1.488,1.488,0,0,1-.317-1.3,1.325,1.325,0,0,1,.788-.9,1.352,1.352,0,0,1,.522-.109,1.534,1.534,0,0,1,1.187.663l6.365,7.863,1.612,1.99V4.342L35.7,8.03q-5.627,4.222-11.255,8.442a4.395,4.395,0,0,1-5.507-.007L2.768,4.336V24.363l6.915-8.544q.161-.2.32-.4c.3-.37.6-.752.923-1.119a1.325,1.325,0,0,1,1.008-.463,1.364,1.364,0,0,1,1.134,2.117,2.318,2.318,0,0,1-.18.241L4.507,26.552ZM5.2,2.749,20.6,14.3a1.828,1.828,0,0,0,1.1.408h0a1.82,1.82,0,0,0,1.093-.406q7.7-5.775,15.4-11.554Z"/></g></g></g></svg>