<svg id="グループ_767" data-name="グループ 767" xmlns="http://www.w3.org/2000/svg" width="64.935" height="79.079" viewBox="0 0 64.935 79.079">
  <g id="グループ_793" data-name="グループ 793">
    <path id="パス_1294" data-name="パス 1294" d="M14,77.534a1.674,1.674,0,0,1,1.623-.784c8.373.019,2.747.012,11.12.012h1c-.173-1.691-.336-3.315-.507-4.939-.453-4.322-.93-8.641-1.358-12.966a3.407,3.407,0,0,1,3.587-3.937c1.073-.013,2.145,0,3.271,0V48.024c-.226.072-.418.115-.595.192-2.329,1.012-4.671,1.995-6.98,3.052a8.894,8.894,0,0,0-5.548,8.518c-.061,4.3-.014,8.594-.015,12.891a5.08,5.08,0,0,1-.021.771,1.074,1.074,0,0,1-1.028.979,1.049,1.049,0,0,1-1.174-.791,2.864,2.864,0,0,1-.085-.836c0-4.271-.041-8.543.006-12.814a11.321,11.321,0,0,1,7.257-10.994c1.848-.818,3.705-1.614,5.69-2.477-.291-.14-.456-.231-.629-.3a9.321,9.321,0,0,1-3.93-14.423A13.694,13.694,0,0,0,28.866,22.3c-.074-1.334-.021-2.675-.009-4.013a17.22,17.22,0,0,1,1.05-6.126C32.566,5.293,37.531,1.265,44.82.142A4.2,4.2,0,0,0,45.326,0h3.392a4.286,4.286,0,0,0,.509.14A17.922,17.922,0,0,1,63.968,11.628a17.348,17.348,0,0,1,1.24,6.859c-.006,1.646.015,3.293,0,4.939a12.293,12.293,0,0,0,2.808,8.05A9.44,9.44,0,0,1,63.784,46.43c.358.164.607.284.861.393,1.578.679,3.167,1.333,4.735,2.036a11.354,11.354,0,0,1,7.237,11.083c.024,5.325.005,10.65.005,15.975v.846c.315,0,.519.01.723,0,.659-.037,1.253.073,1.511.781s-.171,1.156-.692,1.538H14V77.534m51-.8c.152-1.419.3-2.77.442-4.122.486-4.579.981-9.156,1.451-13.736.128-1.245-.263-1.645-1.511-1.645q-17.844,0-35.688,0c-1.266,0-1.629.382-1.5,1.641q.639,6.3,1.312,12.587c.185,1.755.381,3.508.574,5.275ZM53.431,31.451a8.619,8.619,0,0,0,4.225-4.192A2.662,2.662,0,0,0,57.9,26.23c.025-1.7-.007-3.4.022-5.1.009-.5-.177-.662-.641-.839-1.407-.537-2.777-1.172-4.154-1.785a3.519,3.519,0,0,1-.635-.435c-.73-.547-.907-1.186-.5-1.771s1.055-.556,1.837-.134a24.942,24.942,0,0,0,3.8,1.8,10.25,10.25,0,0,0,5.271.377A16.032,16.032,0,0,0,57.563,6.33a31.591,31.591,0,0,1-9.271,9.47,31.492,31.492,0,0,1-12.256,4.752c0,3.144-.057,6.2.014,9.262a8.664,8.664,0,0,0,6.934,8.437,25.964,25.964,0,0,0,6.892.2c3.55-.308,5.978-2.365,7.379-5.631.192-.447.3-.93.477-1.508-1.259.826-2.381,1.542-3.478,2.295a2.343,2.343,0,0,0-.75.781,3.246,3.246,0,0,1-2.676,1.955,19.824,19.824,0,0,1-3.762-.042A3.281,3.281,0,0,1,44.3,32.835a3.36,3.36,0,0,1,3.168-3.2c.769-.039,1.542.014,2.311-.027a3.671,3.671,0,0,1,3.653,1.842M31.141,18.3c8.9.854,19.653-4.884,24.483-13.376a15.486,15.486,0,0,0-16.207-.633c-5.374,3.069-8.026,7.8-8.276,14.008m36.2,58.406H74.29c0-6,.123-11.947-.048-17.886a8.224,8.224,0,0,0-4.856-7.368c-2.617-1.3-5.356-2.347-8.043-3.5-.033-.014-.09.027-.146.046v6.921c1.431,0,2.813,0,4.2,0C68,54.924,69.456,56.483,69.2,59.1c-.352,3.61-.765,7.213-1.148,10.82-.239,2.248-.47,4.5-.709,6.79m-15.31-36.2a30.181,30.181,0,0,1-10.13.007,7.486,7.486,0,0,1-5.028,5.6,2.244,2.244,0,0,0-1.813,2.781c.083.627.237.861.83,1.01a43.968,43.968,0,0,0,9.206,1.32A41.892,41.892,0,0,0,58.264,49.6c.2-.058.52-.211.527-.335a7.653,7.653,0,0,0-.051-2.295c-.08-.31-.776-.5-1.222-.668a8.025,8.025,0,0,1-5.485-5.8M31.166,20.725c0,.6-.024,1.156,0,1.714a15.4,15.4,0,0,1-3.613,10.7,7,7,0,0,0,.568,9.4,7.389,7.389,0,0,0,9.648.475A5.269,5.269,0,0,0,39.6,40.137a.7.7,0,0,0-.353-.888,11.228,11.228,0,0,1-5.534-10.118c.007-2.521,0-5.042,0-7.564v-.843Zm29.055.1c0,2.848.008,5.574,0,8.3A11.31,11.31,0,0,1,54.675,39.25a.676.676,0,0,0-.347.882,5.142,5.142,0,0,0,1.863,2.854,7.266,7.266,0,0,0,6.833,1.222,7.029,7.029,0,0,0,3.443-10.932,17.7,17.7,0,0,1-2.8-4.851,16.3,16.3,0,0,1-.781-5.93c.017-.576,0-1.152,0-1.674ZM58.834,51.868a45.4,45.4,0,0,1-23.674.243v2.749H58.8c.015-.282.036-.508.038-.734,0-.716,0-1.431,0-2.257m-9.743-19.92v0c-.486,0-.973-.018-1.457,0a.981.981,0,0,0-1,.969.925.925,0,0,0,.835,1.1,23.069,23.069,0,0,0,3.134.006.932.932,0,0,0,.857-1.09.981.981,0,0,0-.986-.985c-.459-.028-.92-.006-1.38-.006" transform="translate(-14)" fill="#00b7db"/>
    <path id="パス_1296" data-name="パス 1296" d="M213.954,312.7a4.364,4.364,0,0,1-4.38-4.408,4.39,4.39,0,1,1,4.38,4.408m.015-2.32a2.083,2.083,0,0,0,2.069-2.06,2.126,2.126,0,0,0-2.055-2.094,2.1,2.1,0,0,0-2.092,2.12,2.047,2.047,0,0,0,2.079,2.034" transform="translate(-180.415 -241.317)" fill="#00b7db"/>
  </g>
</svg>
