<svg id="グループ_769" data-name="グループ 769" xmlns="http://www.w3.org/2000/svg" width="57.16" height="79.079" viewBox="0 0 57.16 79.079">
  <g id="グループ_792" data-name="グループ 792">
    <path id="パス_1300" data-name="パス 1300" d="M116.7,79.079a43.037,43.037,0,0,1-5.306-.96c-1.823-.557-3.56-.08-5.335-.047a59.274,59.274,0,0,1-6.639.117c-4.538-.43-8.858-4.723-9.6-9.124-.764-4.556-1.956-9.04-2.923-13.563a14.665,14.665,0,0,1-.059-6.958,7,7,0,0,1,6.394-5.18c1.922-.15,3.828-.508,5.745-.738a1.585,1.585,0,0,0,1.5-1.312c.419-1.877.876-3.751,1.179-5.648.283-1.775.4-3.578.561-5.371a2.055,2.055,0,0,0-.133-.97,27.139,27.139,0,0,1-2.085-9.907,67.186,67.186,0,0,1,.043-6.783c.208-3.382,2.011-6.018,4.417-8.228A15.508,15.508,0,0,1,118.527.326c5.427,1.048,9.474,5.449,10.566,11.3a27.088,27.088,0,0,1,.083,8.758c-.133.959-.242,1.921-.365,2.908a19.546,19.546,0,0,1,2.2.116c4.71.778,7.456,3.754,8.719,8.142a12.442,12.442,0,0,1-1.942,11.078c-.088.124-.169.254-.258.388,4.524,1.83,6.1,5.47,6.082,9.981a27.884,27.884,0,0,1-4.442,15.656c-3.951,5.956-9.67,9.064-16.625,10.134-.657.1-1.315.2-1.972.295Zm2.11-24.641c-5.954-2.595-9.4-7.438-12.282-12.895A13.279,13.279,0,0,1,100.8,44.4a71.915,71.915,0,0,1-7.626,1.147,4.594,4.594,0,0,0-4.051,2.874,8.744,8.744,0,0,0-.345,5.237c1.1,5.23,2.251,10.451,3.4,15.67a8.839,8.839,0,0,0,8.58,6.794c2.879-.079,5.759-.326,8.627-.607a46.788,46.788,0,0,0,10.182-2.16A24.446,24.446,0,0,0,130.1,67.137a14.081,14.081,0,0,0,2.962-4.685c-.267.2-.366.263-.452.34a28.948,28.948,0,0,1-22.665,7.621,13.144,13.144,0,0,1-8.156-3.5c-2.931-2.785-3.757-6.332-3.518-10.224.048-.783.462-1.245,1.092-1.229s1.07.558,1.074,1.344c0,.643-.016,1.288.015,1.93a9.33,9.33,0,0,0,7.067,8.982,19.335,19.335,0,0,0,6.507.675,4.08,4.08,0,0,0,.559-.12c-.96-5.335.923-9.783,4.22-13.829M102.462,22.084a3.323,3.323,0,0,0,0,.388A20.071,20.071,0,0,0,107.384,33.5c3.145,3.434,7.333,4.314,11.142,2.509.814-.386,1.278-.826,1.138-1.792a4.4,4.4,0,0,1,.141-1.373c.658-3.589,2.327-6.556,5.613-8.328a2.016,2.016,0,0,0,1.193-2.281c-.556,0-1.1.02-1.632,0-.817-.037-1.159-.4-1.154-1.213.024-4.222-1.886-7.767-3.884-11.289-1.007.443-1.94.867-2.884,1.266-2.416,1.022-4.889,1.928-7.243,3.076-2.75,1.341-4.4,3.5-4.27,6.74.034.844-.426,1.25-1.3,1.269-.587.013-1.174,0-1.783,0m5.523,16.336-.147.059a5.318,5.318,0,0,0,.222,1,29.653,29.653,0,0,0,5.909,9.067,12.98,12.98,0,0,0,6.774,4.08c1.364.269,1.645,1.041.748,2.085-.252.293-.517.574-.767.869a18.261,18.261,0,0,0-3.773,6.577,10.6,10.6,0,0,0-.126,6.057c1.992-.605,3.966-1.089,5.852-1.8a22.946,22.946,0,0,0,10.162-7.038,5.311,5.311,0,0,0,1.378-3.943c-.125-1.378-.026-2.777-.026-4.166V45.946c-1.276.287-2.522.561-3.764.855a.57.57,0,0,0-.322.273c-1.087,2.1-2.982,2.431-5.024,2.106a42.672,42.672,0,0,1-4.141-1.166,20.514,20.514,0,0,1-11.226-7.36c-.579-.743-1.153-1.489-1.73-2.234m30.084-3.113a10.9,10.9,0,0,0-1.816-6.2c-3.047-4.489-8.63-4.862-12.084-.805a10.847,10.847,0,0,0,.443,14.009,7.075,7.075,0,0,0,9.84.622,9.917,9.917,0,0,0,3.617-7.63M116.061,76.77c1.733,0,3.409.121,5.063-.021a21.063,21.063,0,0,0,15.483-8.4c3.658-4.752,4.916-10.288,4.822-16.169a8.01,8.01,0,0,0-1.762-5.01,5.77,5.77,0,0,0-3.308-2.043c0,3.907.006,7.74,0,11.573a17.085,17.085,0,0,1-3.924,11.118A23.988,23.988,0,0,1,121.9,74.876c-1.89.707-3.842,1.251-5.843,1.894m-12.7-56.848c.122-3.417,1.929-5.707,4.683-7.31a44.2,44.2,0,0,1,4.446-2.129c2.022-.892,4.107-1.649,6.095-2.608a4.7,4.7,0,0,0,2.849-3.245.918.918,0,0,0-.56-1.217,12.374,12.374,0,0,0-7.9-1.023c-6.58,1.272-10.515,5.711-10.909,12.356-.1,1.7.039,3.423.068,5.136.306.019.459.033.612.038.178,0,.356,0,.62,0M127.79,46.6c-4.5-1.347-6.843-4.519-7.922-8.876a11.888,11.888,0,0,1-9.082.835,39.059,39.059,0,0,0,3.821,3.958c3.1,2.695,7.021,3.543,10.852,4.538a2.721,2.721,0,0,0,2.33-.456M121.759,8.589c2.113,3.453,3.91,7.179,4.259,11.45h1.008c.719-5.327.474-10.376-3.367-14.56l-1.9,3.11m-18.85,32.763c.619-.385,1.23-.746,1.821-1.136a1.923,1.923,0,0,0,1-2,6.664,6.664,0,0,1,0-2c.248-1.409-.8-2.073-1.489-3.031l-1.332,8.163" transform="translate(-86.449 0)" fill="#00b7db"/>
  </g>
</svg>
