<svg id="グループ_764" data-name="グループ 764" xmlns="http://www.w3.org/2000/svg" xmlns:xlink="http://www.w3.org/1999/xlink" width="81.61" height="55.282" viewBox="0 0 81.61 55.282">
  <defs>
    <clipPath id="clip-path">
      <rect id="長方形_146" data-name="長方形 146" width="55.276" height="55.282" fill="#00b7db"/>
    </clipPath>
  </defs>
  <g id="グループ_421" data-name="グループ 421">
    <g id="グループ_420" data-name="グループ 420" clip-path="url(#clip-path)">
      <path id="パス_807" data-name="パス 807" d="M50.189,55.282a4.52,4.52,0,0,1-2.961-1.035c-.943-.812-1.842-1.716-2.712-2.591q-.4-.4-.806-.807-.382-.378-.766-.754c-.884-.867-1.8-1.763-2.623-2.7a4.833,4.833,0,0,1-.856-5.225c.009-.024.213-.58-.067-.869-.9-.927-1.793-1.82-2.741-2.765l-.922-.921-.5.394-.522.408a20.517,20.517,0,0,1-9.461,4.236,24.875,24.875,0,0,1-4,.335A20.836,20.836,0,0,1,6.3,36.691,20.3,20.3,0,0,1,.07,23.295,20.981,20.981,0,0,1,7.839,4.922,20.635,20.635,0,0,1,19.636.089a1.519,1.519,0,0,0,.315-.071L20.014,0H22.9c.193.025.387.049.58.072.419.051.853.1,1.271.176A21.381,21.381,0,0,1,39.235,9.43a20.747,20.747,0,0,1,3.716,12.615,21.376,21.376,0,0,1-4.879,13.1c-.062.077-.12.156-.19.254l-.117.16-.171.23.2.2c.263.261.529.519.794.776.6.579,1.216,1.177,1.776,1.8a2.151,2.151,0,0,0,1.653.893A2.869,2.869,0,0,0,42.9,39.3a4.534,4.534,0,0,1,1.39-.226,4.9,4.9,0,0,1,3.466,1.592c1.266,1.252,2.546,2.534,3.783,3.774q1.083,1.086,2.169,2.17a5.675,5.675,0,0,1,1.572,3.149v1.031a6.062,6.062,0,0,1-1.31,2.847,5.01,5.01,0,0,1-3.778,1.647m-6.1-13.576a2.408,2.408,0,0,0-1.7,4.107c2.249,2.291,4.274,4.309,6.189,6.17a3.059,3.059,0,0,0,.987.576c.095.039.184.076.242.107l.081.043.092-.005a2.55,2.55,0,0,0,2.448-1.446,2.232,2.232,0,0,0-.444-2.64c-2.209-2.248-4.243-4.282-6.217-6.217a2.388,2.388,0,0,0-1.678-.694M21.418,2.618A18.906,18.906,0,0,0,2.585,21.484,18.679,18.679,0,0,0,8.114,34.815a18.822,18.822,0,0,0,13.355,5.569h.039A18.944,18.944,0,0,0,40.359,21.494,18.992,18.992,0,0,0,21.508,2.618Z" transform="translate(0)" fill="#00b7db"/>
      <path id="パス_808" data-name="パス 808" d="M172.757,103.308c-.644,0-1.274-.012-1.972-.027a1.272,1.272,0,0,1-1.3-1.316c-.016-3.339-.016-6.867,0-10.487a1.24,1.24,0,0,1,1.28-1.321c.592-.012,1.222-.024,1.857-.024.766,0,1.436.018,2.048.056a3.771,3.771,0,0,1,3.124,2.093,3.837,3.837,0,0,1-.123,3.825c-.058.093-.117.184-.18.282l-.213.333.128.182a4.049,4.049,0,0,1,.819,2.6,3.9,3.9,0,0,1-3.857,3.772c-.491.022-1.018.033-1.612.033m-.636-2.648h.331c.2,0,.4,0,.6.006s.389.006.582.006c.3,0,.542-.007.77-.023a1.275,1.275,0,0,0,1.206-1.314,1.247,1.247,0,0,0-1.114-1.273c-.243-.016-.5-.024-.822-.024-.2,0-.4,0-.605.006s-.408.006-.614.006h-.331Zm.007-5.313h.331c.214,0,.426,0,.636.009s.419.009.625.009a8.414,8.414,0,0,0,.85-.037A1.28,1.28,0,0,0,174.5,92.8c-.242-.018-.5-.027-.82-.027-.2,0-.4,0-.606.007s-.406.007-.611.007h-.331Z" transform="translate(-141.413 -75.209)" fill="#00b7db"/>
      <path id="パス_809" data-name="パス 809" d="M104.922,103.382a3.948,3.948,0,0,1-1.816-.428,4.305,4.305,0,0,1-2.5-4.06c-.009-.471-.006-.952,0-1.417q0-.161,0-.321h.029v-.331c0-.27,0-.54-.008-.81-.009-.572-.018-1.164.015-1.737a4.318,4.318,0,0,1,4.255-4.023l.135,0a4.236,4.236,0,0,1,4.236,3.791,36.945,36.945,0,0,1-.019,5.724,4.272,4.272,0,0,1-4.319,3.615Zm.052-10.515a1.751,1.751,0,0,0-1.753,1.838c-.015,1.388-.015,2.8,0,4.205a1.78,1.78,0,0,0,1.751,1.857,1.814,1.814,0,0,0,1.771-1.875c.008-.48.006-.967,0-1.438,0-.213,0-.427,0-.64s0-.424,0-.636c0-.472,0-.96,0-1.442A1.786,1.786,0,0,0,105,92.867Z" transform="translate(-83.938 -75.307)" fill="#00b7db"/>
      <path id="パス_810" data-name="パス 810" d="M40.956,103.3a3.968,3.968,0,0,1-3.751-3.065,3.134,3.134,0,0,1-.043-1.213,1.208,1.208,0,0,1,1.242-.961h.055a1.3,1.3,0,0,1,1.224,1.094c.006.041.01.082.013.123a1.906,1.906,0,0,0,.026.213,1.36,1.36,0,0,0,1.3,1.184c.029,0,.059,0,.089,0a1.31,1.31,0,0,0,1.227-1.36c.013-1.468.01-2.919.008-4.454q0-.887,0-1.8V92.73h-.331c-.242,0-.477.007-.709.014-.216.006-.428.013-.636.013a5.788,5.788,0,0,1-.735-.04,1.244,1.244,0,0,1-.772-2.067A1.407,1.407,0,0,1,40,90.2c.629-.034,1.3-.051,1.993-.051.571,0,1.159.011,1.8.034.729.026,1.167.556,1.173,1.418.012,1.7.009,3.432.005,5.106l0,.842c0,.141,0,.283,0,.425,0,.536,0,1.09-.034,1.626a3.886,3.886,0,0,1-3.719,3.69c-.087.007-.174.01-.261.01" transform="translate(-30.975 -75.224)" fill="#00b7db"/>
    </g>
  </g>
  <line id="線_46" data-name="線 46" x2="18.115" transform="translate(48.369 8.36)" fill="none" stroke="#00b7db" stroke-linecap="round" stroke-width="3"/>
  <line id="線_47" data-name="線 47" x2="24.909" transform="translate(48.388 16.21)" fill="none" stroke="#00b7db" stroke-linecap="round" stroke-width="3"/>
  <line id="線_48" data-name="線 48" x2="31.702" transform="translate(48.408 24.06)" fill="none" stroke="#00b7db" stroke-linecap="round" stroke-width="3"/>
</svg>
