<svg id="グループ_423" data-name="グループ 423" xmlns="http://www.w3.org/2000/svg" xmlns:xlink="http://www.w3.org/1999/xlink" width="74.622" height="46.724" viewBox="0 0 74.622 46.724">
  <defs>
    <clipPath id="clip-path">
      <rect id="長方形_147" data-name="長方形 147" width="74.622" height="46.724" fill="#00b7db"/>
    </clipPath>
  </defs>
  <g id="グループ_422" data-name="グループ 422" clip-path="url(#clip-path)">
    <path id="パス_811" data-name="パス 811" d="M124.29,36.727V29.573q0-12.379,0-24.758c0-1.564-.384-1.985-1.81-1.985H77.438c-1.766,0-2.024.282-2.053,2.247,0,.146-.016.292-.028.5H72.91C72.352,2.335,74.1,0,77.093,0q22.762,0,45.524,0c2.663,0,4.245,1.741,4.246,4.673q0,15.562,0,31.124v.929Z" transform="translate(-59.942 -0.001)" fill="#00b7db"/>
    <path id="パス_812" data-name="パス 812" d="M196.83,208.039v-2.83h.969q16.166,0,32.331.007a3.723,3.723,0,0,0,3.342-2.121H196.837v-2.838H234.92c1.545,0,2.056.757,1.577,2.352-.834,2.774-2.964,5.5-6.785,5.465-10.615-.1-21.232-.036-31.848-.036Z" transform="translate(-162.049 -161.351)" fill="#00b7db"/>
    <path id="パス_813" data-name="パス 813" d="M48.068,81.862V79.051H59.553V46.542H39.038v4.124H36.463c0-1.942-.036-3.878.017-5.811.021-.774.6-1.193,1.44-1.2,2.761-.008,5.522,0,8.284,0H60.358c1.445,0,1.826.407,1.826,1.96q0,17.151,0,34.3c0,1.5-.4,1.941-1.77,1.941q-5.79,0-11.581,0h-.765" transform="translate(-30.01 -35.174)" fill="#00b7db"/>
    <path id="パス_814" data-name="パス 814" d="M15.444,108.875q0,6.1,0,12.194c0,1.392-.423,1.861-1.679,1.862q-6.029,0-12.057,0C.434,122.93,0,122.469,0,121.1q0-12.327,0-24.653c0-1.336.43-1.812,1.638-1.813q6.069-.006,12.137,0c1.25,0,1.665.47,1.666,1.873q0,6.186,0,12.371M2.631,120.031h10.2V97.5H2.631Z" transform="translate(0 -76.244)" fill="#00b7db"/>
    <path id="パス_815" data-name="パス 815" d="M104.56,198.01a1.378,1.378,0,0,1-1.245,1.448,1.414,1.414,0,1,1,1.245-1.448" transform="translate(-83.975 -158.439)" fill="#00b7db"/>
    <path id="パス_816" data-name="パス 816" d="M37.76,196.646a1.414,1.414,0,1,1-1.306,1.376,1.348,1.348,0,0,1,1.306-1.376" transform="translate(-30.012 -158.44)" fill="#00b7db"/>
  </g>
</svg>
