<svg xmlns="http://www.w3.org/2000/svg" width="65.925" height="65.118" viewBox="0 0 65.925 65.118"><circle cx="31" cy="31" r="31" transform="translate(3.925 3.118)" fill="#ff0"/><path d="M67.794,71.8H60.5a.658.658,0,0,1-.658-.658v-1.22a.658.658,0,0,1,.658-.658h7.3a.658.658,0,0,0,.658-.658V66.431a.658.658,0,0,0-.658-.658H60.5a.658.658,0,0,1-.658-.658V63.943a.658.658,0,0,1,.658-.658h5.781a.658.658,0,0,0,.587-.956L59.13,47.112a.658.658,0,0,1,.587-.956h3.1a.659.659,0,0,1,.6.387l3.988,8.8c1.053,2.344,2.057,4.689,3.206,7.225h.239C71.993,60.032,73,57.687,74.1,55.343l4.035-8.8a.658.658,0,0,1,.6-.384h2.9a.658.658,0,0,1,.585.959L74.4,62.326a.658.658,0,0,0,.586.959h5.872a.658.658,0,0,1,.658.658v1.172a.658.658,0,0,1-.658.658H73.465a.658.658,0,0,0-.658.658v2.176a.658.658,0,0,0,.658.658h7.392a.658.658,0,0,1,.658.658v1.22a.658.658,0,0,1-.658.658H73.465a.658.658,0,0,0-.658.658v7.153a.658.658,0,0,1-.658.658H69.111a.658.658,0,0,1-.658-.658V72.46a.658.658,0,0,0-.658-.658" transform="translate(-38.962 -30.451)"/><path d="M31.65,63.3a31.687,31.687,0,0,1-8.8-1.239,1.371,1.371,0,1,1,.761-2.635,28.908,28.908,0,1,0-3.854-1.419,1.372,1.372,0,0,1-1.13,2.5A31.664,31.664,0,1,1,31.65,63.3"/></svg>