<svg xmlns="http://www.w3.org/2000/svg" xmlns:xlink="http://www.w3.org/1999/xlink" width="80.018" height="59.721" viewBox="0 0 80.018 59.721"><defs><clipPath id="a"><rect width="80.018" height="59.721" fill="none"/></clipPath></defs><g clip-path="url(#a)"><path d="M28.409,94.547q0,8.165,0,16.329a1.915,1.915,0,0,1-1.59,2.061,1.848,1.848,0,0,1-2.019-1.115,4.153,4.153,0,0,1-.174-1.357c-.013-3.813-.007-7.627-.008-11.44,0-1.138.011-2.276,0-3.413-.013-1-.394-1.475-1.132-1.476s-1.138.49-1.14,1.472q-.012,7.288,0,14.576c0,.338.01.678-.019,1.014a1.876,1.876,0,0,1-3.743.05,11.016,11.016,0,0,1-.027-1.106q0-15.729,0-31.459a2.262,2.262,0,0,0-.085-1.084c-.229-.372-.682-.87-1.01-.85-.4.024-.835.48-1.113.855-.168.226-.081.653-.081.989q-.005,7.15,0,14.3A5.309,5.309,0,0,1,16.2,93.9a1.324,1.324,0,0,1-1.438,1.159A1.316,1.316,0,0,1,13.42,93.9a5.186,5.186,0,0,1-.041-.919q0-8.488,0-16.975c0-2.484,1.129-3.614,3.593-3.615q6.6,0,13.193,0a3.059,3.059,0,0,1,3.408,3.335q.013,8.764,0,17.529a2.711,2.711,0,0,1-.05.733A1.357,1.357,0,0,1,32.1,95.067,1.308,1.308,0,0,1,30.772,94a4.95,4.95,0,0,1-.075-1.1q-.007-7.15-.005-14.3c0-.337.082-.749-.078-.993-.242-.368-.653-.842-1.01-.857s-.818.415-1.087.763c-.172.222-.1.649-.1.984q-.007,8.026,0,16.053" transform="translate(-10.078 -54.541)" fill="#ff0"/><path d="M140.328,95.544q0,7.889,0,15.778a6.7,6.7,0,0,1-.027.921,1.9,1.9,0,0,1-3.784-.036,15.082,15.082,0,0,1-.024-1.567q0-6.92-.007-13.841c0-.361.037-.831-.162-1.056a1.526,1.526,0,0,0-1.124-.54c-.346.054-.68.509-.909.859-.129.2-.042.539-.042.815q0,7.29,0,14.579a4.387,4.387,0,0,1-.1,1.094,1.9,1.9,0,0,1-1.83,1.419,1.878,1.878,0,0,1-1.8-1.45,5.154,5.154,0,0,1-.1-1.188q-.007-15.732,0-31.464c0-.246,0-.492,0-.738-.019-.941-.455-1.512-1.165-1.435-.833.09-1.089.652-1.087,1.434q.017,7.382.005,14.763c0,1.492-.5,2.218-1.5,2.185-.957-.031-1.421-.74-1.421-2.18q0-8.443,0-16.885c0-2.46,1.162-3.62,3.612-3.621q6.6,0,13.195,0a3.11,3.11,0,0,1,3.437,3.425q.012,8.674,0,17.347c0,1.192-.516,1.877-1.409,1.914-.909.037-1.506-.66-1.507-1.806q-.009-7.335,0-14.671c0-1.364-.353-1.946-1.16-1.916-.778.029-1.085.564-1.085,1.9q0,7.982,0,15.963" transform="translate(-94.361 -55.293)" fill="#ff0"/><path d="M42.756,21.657a3.773,3.773,0,0,1,.07-7.545,3.773,3.773,0,1,1-.07,7.545" transform="translate(-29.416 -10.632)" fill="#ff0"/><path d="M150.092,16.864a3.753,3.753,0,1,1,3.7,3.792,3.762,3.762,0,0,1-3.7-3.792" transform="translate(-113.081 -9.878)" fill="#ff0"/><path d="M19.629,86.289V87.38c0,4.152.02,8.3-.008,12.454-.019,2.788-1.913,4.711-4.487,4.444a13.4,13.4,0,0,1-2.923-1.036,4.025,4.025,0,0,1-4.823.559,4.17,4.17,0,0,1-2.206-4.058q.012-6.227,0-12.454v-.937a12.21,12.21,0,0,1-2.277-.023,3.561,3.561,0,0,1-2.868-3.6C0,76.642-.031,70.553.051,64.465a5.187,5.187,0,0,1,5.435-5.209q6.919-.028,13.838,0a5.187,5.187,0,0,1,5.441,5.291c.067,6.027.055,12.054.007,18.081-.022,2.755-1.9,4.073-5.143,3.661m-2.284-2.635q0-8.026,0-16.053c0-.335-.069-.762.1-.984.269-.348.727-.778,1.087-.763s.769.488,1.01.857c.16.244.078.656.078.993q0,7.15.005,14.3a4.95,4.95,0,0,0,.075,1.1,1.308,1.308,0,0,0,1.328,1.069A1.357,1.357,0,0,0,22.459,83.1a2.711,2.711,0,0,0,.05-.733q0-8.764,0-17.529A3.059,3.059,0,0,0,19.1,61.5q-6.6-.006-13.193,0c-2.464,0-3.592,1.131-3.593,3.615q-.005,8.488,0,16.975a5.186,5.186,0,0,0,.041.919A1.316,1.316,0,0,0,3.7,84.171a1.324,1.324,0,0,0,1.438-1.159A5.309,5.309,0,0,0,5.181,82q0-7.15,0-14.3c0-.337-.086-.763.081-.989.278-.375.717-.83,1.113-.855.328-.02.781.478,1.01.85a2.265,2.265,0,0,1,.085,1.083q0,15.73,0,31.459a11.016,11.016,0,0,0,.027,1.106,1.876,1.876,0,0,0,3.743-.05c.03-.336.019-.676.019-1.014q0-7.288,0-14.576c0-.982.4-1.472,1.14-1.472s1.119.479,1.132,1.476c.015,1.138,0,2.276,0,3.413,0,3.813-.005,7.627.008,11.44a4.153,4.153,0,0,0,.174,1.357,1.848,1.848,0,0,0,2.019,1.115,1.915,1.915,0,0,0,1.59-2.061q.014-8.165.006-16.329" transform="translate(0 -44.634)"/><path d="M131.683,85.22v6.987c0,2.122-.038,4.244.011,6.365a4.2,4.2,0,0,1-2.3,4.268,4.008,4.008,0,0,1-4.731-.642,13.378,13.378,0,0,1-2.776,1.06,4.071,4.071,0,0,1-4.6-4.123c-.025-4.274-.008-8.549-.008-12.823V85.229c-.234.04-.4.063-.564.1a3.693,3.693,0,0,1-4.595-3.7q-.028-9.041,0-18.081a5.22,5.22,0,0,1,5.253-5.295q7.1-.054,14.206,0a5.224,5.224,0,0,1,5.267,5.374c.02,5.812-.09,11.626.05,17.434.062,2.6-1.8,5.022-5.21,4.168m-2.246-2.587q0-7.982,0-15.963c0-1.332.307-1.867,1.085-1.9.807-.03,1.16.553,1.16,1.916q0,7.336,0,14.671c0,1.145.6,1.842,1.507,1.806.893-.036,1.408-.721,1.409-1.914q.006-8.674,0-17.347a3.11,3.11,0,0,0-3.437-3.425q-6.6-.006-13.195,0c-2.451,0-3.611,1.161-3.612,3.621q0,8.442,0,16.885c0,1.44.465,2.148,1.422,2.18,1,.032,1.5-.693,1.5-2.185q0-7.382-.005-14.763c0-.782.253-1.344,1.087-1.434.71-.076,1.146.494,1.165,1.435,0,.246,0,.492,0,.738q0,15.732,0,31.464a5.14,5.14,0,0,0,.1,1.188,1.878,1.878,0,0,0,1.8,1.45,1.9,1.9,0,0,0,1.83-1.419,4.4,4.4,0,0,0,.1-1.094q.009-7.289,0-14.579c0-.276-.087-.618.042-.815.23-.351.563-.805.909-.859a1.526,1.526,0,0,1,1.124.54c.2.225.161.695.162,1.056q.014,6.92.007,13.841a15.078,15.078,0,0,0,.024,1.567,1.9,1.9,0,0,0,3.784.036,6.74,6.74,0,0,0,.027-.921q0-7.889,0-15.778" transform="translate(-84.457 -43.862)"/><path d="M31.923,13.044a6.022,6.022,0,1,1,6.045-6,5.982,5.982,0,0,1-6.045,6m-.04-2.252a3.773,3.773,0,1,0-3.712-3.8,3.8,3.8,0,0,0,3.712,3.8" transform="translate(-19.53 -0.753)"/><path d="M143.842,12.042a6.021,6.021,0,1,1,6.038-6.051,6.043,6.043,0,0,1-6.038,6.051M140.081,6a3.753,3.753,0,1,0,3.754-3.753A3.738,3.738,0,0,0,140.081,6" transform="translate(-103.81 0)"/><path d="M230.105,60.886c-.2.168-.513.634-.927.75a3.311,3.311,0,0,0-2.606,2.657,1.052,1.052,0,0,1-1.367.888c-.691-.15-.9-.66-.84-1.324a5.419,5.419,0,0,1,4.463-4.414c.737-.049,1.281.427,1.277,1.443" transform="translate(-169.032 -44.782)"/><path d="M306.555,64.367c-.188.171-.5.645-.927.8a.937.937,0,0,1-1.25-.772,3.365,3.365,0,0,0-2.8-2.791,1,1,0,0,1-.745-1.292,1.087,1.087,0,0,1,1.229-.875c2.082.1,4.472,2.532,4.5,4.931" transform="translate(-226.62 -44.779)"/><path d="M278.5,231.035a11.822,11.822,0,0,1-1.6-.5,1.106,1.106,0,0,1,.822-2.05,2.128,2.128,0,0,0,2.763-.679,1.025,1.025,0,0,1,1.554-.117,1.05,1.05,0,0,1,.151,1.556,4.325,4.325,0,0,1-3.689,1.792" transform="translate(-208.12 -171.316)"/><path d="M251.064,231.042a4.31,4.31,0,0,1-3.7-1.755,1.063,1.063,0,0,1,.171-1.62,1.04,1.04,0,0,1,1.552.184,2.064,2.064,0,0,0,2.686.652,1.021,1.021,0,0,1,1.425.632,1.033,1.033,0,0,1-.61,1.436,11.391,11.391,0,0,1-1.526.472" transform="translate(-186.147 -171.326)"/><path d="M271.915,159.142a12.9,12.9,0,0,1-.011,1.465,1.055,1.055,0,0,1-1.159,1.047,1.012,1.012,0,0,1-1.07-1.034c-.045-1.006-.046-2.017.008-3.022a1,1,0,0,1,1.1-1,1.033,1.033,0,0,1,1.116.991,12.345,12.345,0,0,1,.013,1.556h.008" transform="translate(-203.152 -117.98)"/><path d="M294.35,94.087c0-.492-.039-.987.01-1.474a1.039,1.039,0,0,1,1.077-1.043,1,1,0,0,1,1.126.982,15.684,15.684,0,0,1-.037,3.124,1.542,1.542,0,0,1-1.038.925c-.6.139-1.049-.311-1.118-.95a14.656,14.656,0,0,1-.011-1.565h-.008" transform="translate(-221.756 -68.99)"/><path d="M271.906,206.508c0,.43.029.862-.006,1.289-.058.7-.4,1.17-1.162,1.154a1.042,1.042,0,0,1-1.092-1.121c-.035-.92-.038-1.842,0-2.761a1.055,1.055,0,0,1,1.1-1.119c.741-.005,1.1.476,1.15,1.177.033.458.006.921.006,1.381" transform="translate(-203.134 -153.659)"/><path d="M296.523,141.454a12.812,12.812,0,0,1-.011,1.47,1.039,1.039,0,0,1-1.109,1.008,1.008,1.008,0,0,1-1.1-1.01,15.629,15.629,0,0,1,.043-3.026,1.545,1.545,0,0,1,1.023-.946c.6-.142,1.047.324,1.131.943a11.676,11.676,0,0,1,.014,1.561h.007" transform="translate(-221.693 -104.668)"/><path d="M294.332,117.872c0-.46-.036-.923.007-1.379a1.049,1.049,0,0,1,1.132-1.077,1.013,1.013,0,0,1,1.09,1.021,25.426,25.426,0,0,1,0,2.94,1.031,1.031,0,0,1-1.078,1.042,1.06,1.06,0,0,1-1.14-1.077c-.047-.486-.009-.98-.01-1.47" transform="translate(-221.743 -86.956)"/><path d="M296.554,182.972a11.857,11.857,0,0,1-.012,1.469,1.051,1.051,0,0,1-1.118,1,1.03,1.03,0,0,1-1.086-1.034,29.313,29.313,0,0,1-.005-2.941,1.014,1.014,0,0,1,1.076-1.035,1.057,1.057,0,0,1,1.148,1.066,14.547,14.547,0,0,1,.01,1.471h-.013" transform="translate(-221.729 -135.942)"/><path d="M294.328,206.406c0-.46-.035-.923.009-1.378a1.064,1.064,0,0,1,1.137-1.082,1.031,1.031,0,0,1,1.083,1.038,25.6,25.6,0,0,1,0,2.94,1.015,1.015,0,0,1-1.086,1.026,1.048,1.048,0,0,1-1.137-1.073c-.045-.487-.009-.98-.008-1.471" transform="translate(-221.74 -153.655)"/><path d="M317.507,135.869a12.826,12.826,0,0,1-.009,1.378,1.071,1.071,0,0,1-1.149,1.074,1.034,1.034,0,0,1-1.07-1.051,28.317,28.317,0,0,1,0-2.94,1.009,1.009,0,0,1,1.092-1.016,1.028,1.028,0,0,1,1.115,1,13.721,13.721,0,0,1,.012,1.561h.008" transform="translate(-237.507 -100.44)"/><path d="M317.509,112.144a14.62,14.62,0,0,1-.009,1.471,1.058,1.058,0,0,1-1.143,1.073,1.013,1.013,0,0,1-1.081-1.031,28.191,28.191,0,0,1,0-2.941,1.029,1.029,0,0,1,1.082-1.039,1.078,1.078,0,0,1,1.138,1.088,13.734,13.734,0,0,1,.01,1.378" transform="translate(-237.506 -82.632)"/><path d="M317.47,88.719a12.578,12.578,0,0,1-.012,1.469,1.052,1.052,0,0,1-1.1,1.019,1.021,1.021,0,0,1-1.1-1.018,15.448,15.448,0,0,1,.04-3.025,1.554,1.554,0,0,1,1.021-.929c.615-.16,1.05.3,1.131.923a12.422,12.422,0,0,1,.013,1.56h.008" transform="translate(-237.478 -64.947)"/><path d="M271.874,182.976a11.7,11.7,0,0,1-.012,1.471,1.061,1.061,0,0,1-1.112,1.016,1.026,1.026,0,0,1-1.1-1.019,15.726,15.726,0,0,1,.043-3.028,1.552,1.552,0,0,1,1.025-.928c.612-.156,1.052.3,1.137.926a11.73,11.73,0,0,1,.014,1.561h.006" transform="translate(-203.119 -135.959)"/><path d="M306.462,158.41c-1,.036-1.488-.289-1.55-1.015-.057-.67.349-1.013.991-1.227a3.7,3.7,0,0,0,1.418-.846c.508-.51,1.01-.726,1.611-.32a1.076,1.076,0,0,1,.266,1.612,3.542,3.542,0,0,1-2.735,1.8" transform="translate(-229.721 -116.621)"/><path d="M247.307,94.142c0,.461.031.925-.007,1.383a1.078,1.078,0,0,1-1.117,1.115,1.023,1.023,0,0,1-1.121-1.086c-.031-.952-.034-1.907,0-2.859a1.035,1.035,0,0,1,1.1-1.114,1.063,1.063,0,0,1,1.137,1.086c.048.487.009.983.009,1.475h0" transform="translate(-184.615 -68.998)"/><path d="M226.368,135.733c0,.491.033.985-.008,1.473a1.084,1.084,0,0,1-1.111,1.12,1.032,1.032,0,0,1-1.122-1.086c-.034-.95-.03-1.9,0-2.853a1.006,1.006,0,0,1,1.043-1.063,1.054,1.054,0,0,1,1.181,1.03,11.088,11.088,0,0,1,.011,1.379h.006" transform="translate(-168.842 -100.446)"/><path d="M228.562,158.6a3.625,3.625,0,0,1-3.018-1.835,1.038,1.038,0,0,1,.3-1.536,1.16,1.16,0,0,1,1.566.256,4.013,4.013,0,0,0,1.428.856c.648.213,1.064.559,1.007,1.227a1.084,1.084,0,0,1-1.283,1.032" transform="translate(-169.768 -116.796)"/><path d="M226.367,112.187a12.1,12.1,0,0,1-.012,1.472,1.054,1.054,0,0,1-1.186,1.026,1.008,1.008,0,0,1-1.038-1.069q-.043-1.426,0-2.854a1.031,1.031,0,0,1,1.037-1.081,1.064,1.064,0,0,1,1.184,1.035,11.9,11.9,0,0,1,.012,1.471h0" transform="translate(-168.847 -82.633)"/><path d="M224.131,88.671c0-.46-.021-.922,0-1.381a1.036,1.036,0,0,1,1.1-1.1,1.01,1.01,0,0,1,1.114,1,22.5,22.5,0,0,1-.008,3.035,1.019,1.019,0,0,1-1.138.976,1.036,1.036,0,0,1-1.065-1.053c-.033-.489-.007-.982-.007-1.473h-.007" transform="translate(-168.857 -64.937)"/><path d="M247.313,182.949c0,.46.032.923-.008,1.38a1.09,1.09,0,0,1-1.114,1.12,1.036,1.036,0,0,1-1.121-1.089c-.035-.949-.03-1.9,0-2.851a1.009,1.009,0,0,1,1.044-1.063,1.058,1.058,0,0,1,1.18,1.033,12.138,12.138,0,0,1,.012,1.471h.005" transform="translate(-184.621 -135.949)"/><path d="M245.1,117.917c0-.491-.031-.983.006-1.471a1.017,1.017,0,0,1,1.074-1.031,1.006,1.006,0,0,1,1.13.975,22.388,22.388,0,0,1,0,3.033,1.105,1.105,0,0,1-2.2-.035c-.041-.487-.008-.98-.009-1.471" transform="translate(-184.653 -86.954)"/><path d="M253.416,59.287c.46,0,.92-.014,1.379,0a1.035,1.035,0,0,1,1.108,1.1,1.017,1.017,0,0,1-1,1.114,25,25,0,0,1-3.03,0,1.1,1.1,0,0,1,.072-2.2c.489-.025.98,0,1.47-.006" transform="translate(-189.032 -44.663)"/><path d="M247.307,206.508c0,.43.027.861-.006,1.288-.055.7-.409,1.168-1.161,1.154a1.032,1.032,0,0,1-1.085-1.121q-.042-1.379,0-2.76a1.046,1.046,0,0,1,1.1-1.119,1.074,1.074,0,0,1,1.139,1.086,14.556,14.556,0,0,1,.01,1.471h.006" transform="translate(-184.612 -153.659)"/><path d="M279.9,61.5a13.135,13.135,0,0,1-1.469-.01,1.037,1.037,0,0,1-1.017-1.181,1,1,0,0,1,1.064-1.033q1.423-.036,2.848,0a1.021,1.021,0,0,1,1.074,1.035,1.054,1.054,0,0,1-1.032,1.177,13.369,13.369,0,0,1-1.468.011" transform="translate(-209.01 -44.647)"/><path d="M247.311,141.426c0,.46.032.923-.008,1.38a1.07,1.07,0,0,1-1.118,1.106,1.022,1.022,0,0,1-1.119-1.084c-.031-.95-.031-1.9,0-2.853a1.031,1.031,0,0,1,1.05-1.07,1.071,1.071,0,0,1,1.174,1.049,12.616,12.616,0,0,1,.011,1.471h.007" transform="translate(-184.62 -104.652)"/><path d="M252.349,18.071c.031.542.06,1.085.092,1.628a1.079,1.079,0,0,1-.9,1.284.982.982,0,0,1-1.293-.839,10.7,10.7,0,0,1,.006-2.535,1.071,1.071,0,1,1,2.09.462" transform="translate(-188.489 -12.607)"/><path d="M279.871,36.975c-.075.145-.144.5-.359.655a13.679,13.679,0,0,1-2.105,1.261,1.008,1.008,0,0,1-1.44-.582,1.1,1.1,0,0,1,.615-1.52c.539-.277,1.05-.61,1.58-.906a1.138,1.138,0,0,1,1.71,1.092" transform="translate(-207.836 -26.915)"/><path d="M260.811,37.982c0,.93-.691,1.553-1.362,1.279a8.5,8.5,0,0,1-2.32-1.388,1.379,1.379,0,0,1-.039-1.353,1.477,1.477,0,0,1,1.325-.307,7.264,7.264,0,0,1,1.893,1.069,2.233,2.233,0,0,1,.5.7" transform="translate(-193.576 -27.25)"/><path d="M277.215.58a28.116,28.116,0,0,1,2.729,1.984c.185.168.044,1.009-.217,1.266a1.508,1.508,0,0,1-1.289.157A5.1,5.1,0,0,1,276.712,3a1.6,1.6,0,0,1-.513-1.217c.057-.373.547-.68,1.016-1.2" transform="translate(-208.086 -0.437)"/><path d="M289.266,19.07c-.032-.341-.179-.7-.064-.939.206-.421.522-1,.88-1.075s1.128.35,1.182.65a8.324,8.324,0,0,1,.01,2.8c-.051.3-.811.726-1.172.663s-.717-.625-.9-1.044c-.129-.3.035-.72.064-1.054" transform="translate(-217.852 -12.843)"/><path d="M260.331,3.219c-.132.173-.331.71-.628.772-1.007.21-1.594,1.649-2.853,1A1.021,1.021,0,0,1,256.6,3.35a10.443,10.443,0,0,1,2.417-1.409c.615-.257,1.281.362,1.312,1.278" transform="translate(-193.089 -1.419)"/><path d="M293.331,165.436c.322-.542.5-1.174.908-1.421a1.528,1.528,0,0,1,1.336.3,2.268,2.268,0,0,1-.051,2.487,1.556,1.556,0,0,1-1.37.19c-.393-.286-.52-.936-.823-1.558" transform="translate(-221 -123.522)"/><path d="M247.352,165.542c-.29.582-.412,1.218-.788,1.464a1.584,1.584,0,0,1-1.379-.145,2.319,2.319,0,0,1-.036-2.557,1.532,1.532,0,0,1,1.352-.224c.4.27.553.907.852,1.461" transform="translate(-184.422 -123.557)"/></g></svg>