<svg xmlns="http://www.w3.org/2000/svg" xmlns:xlink="http://www.w3.org/1999/xlink" width="73.992" height="75.074" viewBox="0 0 73.992 75.074"><defs><clipPath id="a"><rect width="73.992" height="75.074" fill="none"/></clipPath></defs><g clip-path="url(#a)"><path d="M225.632,211.9c.041-.35.075-.8.149-1.251a6.337,6.337,0,0,0-.713-4.456,12.829,12.829,0,0,1-.65-1.28,1.845,1.845,0,0,1,.392-2.284.923.923,0,0,1,.109-.1,8.369,8.369,0,0,0,3.393-5.843,1.837,1.837,0,0,1,1.889-1.646,7.982,7.982,0,0,1,.909-.035,6.577,6.577,0,0,0,4.671-1.642,9.567,9.567,0,0,1,.911-.679,1.873,1.873,0,0,1,2.386-.015,3.639,3.639,0,0,1,.425.316,7.728,7.728,0,0,0,5.683,2.049c1.487-.037,2.11.477,2.344,1.927a8.25,8.25,0,0,0,3.09,5.359c1.185.951,1.241,1.638.56,2.986-.125.247-.233.506-.379.74a6.482,6.482,0,0,0-.768,4.809,7.86,7.86,0,0,1,.114,1.2,1.6,1.6,0,0,1-1.032,1.7,9.327,9.327,0,0,0-5.592,4.667,1.714,1.714,0,0,1-2.06.744,3.689,3.689,0,0,1-.579-.177,7.841,7.841,0,0,0-5.969-.024c-1.558.58-2.219.356-3.016-1.093a8.365,8.365,0,0,0-4.866-3.945,1.858,1.858,0,0,1-1.4-2.025m21.332-6.133a9.073,9.073,0,1,0-9.075,9.051,9.087,9.087,0,0,0,9.075-9.051" transform="translate(-178.858 -153.378)" fill="#ff0"/><path d="M321.195,325.138c-.9-.147-1.622-.255-2.337-.383a1.316,1.316,0,0,0-1.507.733c-.353.629-.729,1.245-1.159,1.976l-1.712-3.661A14.429,14.429,0,0,0,317,322.343,14.651,14.651,0,0,0,318.793,320l2.4,5.138" transform="translate(-250.893 -255.298)" fill="#ff0"/><path d="M236.258,324.805l2.442-5.232c1.072,1.792,2.082,3.461,4.379,3.654l-1.807,3.889c-.384-.641-.715-1.183-1.036-1.73-.578-.982-.846-1.113-1.971-.929-.616.1-1.23.213-2.006.348" transform="translate(-188.488 -254.957)" fill="#ff0"/><path d="M272.4,232.825a6.642,6.642,0,1,1-6.6-6.688,6.651,6.651,0,0,1,6.6,6.688" transform="translate(-206.725 -180.413)" fill="#ff0"/><path d="M46.948,62.6a8.7,8.7,0,0,1-1.234-.556,4.5,4.5,0,0,1-1.575-1.24c-.542-.991-1.3-1.014-2.241-1.013q-19.944.032-39.888.015c-.227,0-.455.006-.682,0A1.233,1.233,0,0,1,.017,58.281,31.336,31.336,0,0,1,23.571,31.454c.12-.031.235-.084.434-.158-5.83-3.252-9.1-8.071-9.218-14.755A15.8,15.8,0,0,1,19.974,4.463,16.485,16.485,0,1,1,38.542,31.271c1.256.408,2.5.772,3.722,1.217a29.819,29.819,0,0,1,9.457,5.6,1.03,1.03,0,0,0,1.42.125c.666-.456,1.314-.94,1.965-1.417a4.334,4.334,0,0,1,5.409-.016,2.238,2.238,0,0,1,.241.183,6.27,6.27,0,0,0,4.616,1.685A4.244,4.244,0,0,1,69.8,42.232a2.752,2.752,0,0,1,.089.367,5.823,5.823,0,0,0,2.209,3.9A7.106,7.106,0,0,1,73.7,48.721a3.583,3.583,0,0,1-.1,3.012,5.246,5.246,0,0,1-.433.881,5.7,5.7,0,0,0-.764,4.329c.453,2.691-.518,4.283-3.055,5.375-.206.089-.409.185-.665.3l2.908,6.253c.149.32.311.634.441.961a1.444,1.444,0,0,1-1.52,2.09,26.3,26.3,0,0,1-2.687-.453c-.556-.113-.928-.055-1.2.538-.36.774-.848,1.488-1.279,2.229a1.5,1.5,0,0,1-2.753-.136c-.955-2.057-1.964-4.09-2.853-6.174a1.8,1.8,0,0,0-1.587-1.152,1.955,1.955,0,0,0-2.229,1.184c-.927,1.986-1.859,3.97-2.776,5.961a1.559,1.559,0,0,1-2.978.106c-.4-.729-.855-1.428-1.24-2.165a.715.715,0,0,0-.909-.418c-.865.177-1.739.311-2.61.461a1.538,1.538,0,0,1-1.682-.584A1.606,1.606,0,0,1,43.7,69.6q1.463-3.112,2.912-6.231c.106-.226.2-.458.334-.767M17.193,16.445A14.06,14.06,0,1,0,31.3,2.421a14.03,14.03,0,0,0-14.1,14.024M18.877,35.71C10.1,39.6,3.655,48.652,2.686,57.338H28.454c-.995-1.1-1.9-2.109-2.815-3.1a1.627,1.627,0,0,1-.416-1.59c.5-2.307.962-4.624,1.447-6.987-1.306.842-1.8.713-2.546-.617-1.74-3.095-3.48-6.19-5.247-9.333M45.561,57.92a1.858,1.858,0,0,0,1.4,2.025,8.364,8.364,0,0,1,4.866,3.945c.8,1.449,1.458,1.673,3.016,1.093a7.84,7.84,0,0,1,5.969.024,3.709,3.709,0,0,0,.579.177,1.714,1.714,0,0,0,2.06-.744,9.328,9.328,0,0,1,5.592-4.667,1.6,1.6,0,0,0,1.032-1.7,7.835,7.835,0,0,0-.114-1.2,6.483,6.483,0,0,1,.768-4.809c.146-.234.254-.493.38-.74.681-1.348.625-2.035-.561-2.986a8.251,8.251,0,0,1-3.09-5.359c-.234-1.451-.857-1.964-2.344-1.927A7.728,7.728,0,0,1,59.433,39a3.665,3.665,0,0,0-.425-.316,1.873,1.873,0,0,0-2.386.015,9.528,9.528,0,0,0-.911.678,6.577,6.577,0,0,1-4.671,1.642,7.983,7.983,0,0,0-.909.035A1.837,1.837,0,0,0,48.241,42.7a8.37,8.37,0,0,1-3.393,5.843.934.934,0,0,0-.109.1,1.845,1.845,0,0,0-.392,2.284,12.828,12.828,0,0,0,.65,1.28,6.337,6.337,0,0,1,.713,4.456c-.074.447-.108.9-.149,1.251M43.1,57.353a5.805,5.805,0,0,0-.584-4.715c-1.432-2.584-1.118-4.274,1.11-6.228a5.857,5.857,0,0,0,2.125-3.691,4.62,4.62,0,0,1,3.186-3.937L43.7,35.607c-.226.382-.37.615-.5.853q-2.411,4.283-4.82,8.567c-.741,1.317-1.145,1.442-2.475.743a4.762,4.762,0,0,0,.049.537c.418,2.023.817,4.049,1.275,6.063a2.065,2.065,0,0,1-.584,2.121c-.88.881-1.68,1.841-2.6,2.862ZM31.249,56.8c1.03-1.135,1.966-2.228,2.974-3.251a1.55,1.55,0,0,0,.441-1.6c-.676-3.125-1.349-6.251-1.932-9.394a5.268,5.268,0,0,0-1.589-2.57,8.853,8.853,0,0,0-1.234,2.144c-.78,3.384-1.445,6.795-2.131,10.2a1,1,0,0,0,.128.757c1.073,1.236,2.185,2.438,3.343,3.715M21.131,34.766,25.7,42.88l3.8-4.5c-1.391-1.079-2.726-2.115-4.062-3.148-1.915-1.482-1.916-1.481-4.307-.462m20.258-.043a21.028,21.028,0,0,0-2.067-.641,1.4,1.4,0,0,0-1,.2c-1.164.841-2.284,1.741-3.42,2.621l-1.911,1.478,3.808,4.5,4.587-8.155m27.7,34.511-2.4-5.138a14.629,14.629,0,0,1-1.791,2.343A14.421,14.421,0,0,1,62.372,67.9l1.712,3.661c.43-.731.806-1.347,1.159-1.976a1.316,1.316,0,0,1,1.507-.733c.715.127,1.434.236,2.337.383m-22.531.008c.776-.135,1.39-.247,2.006-.348,1.125-.184,1.393-.053,1.971.929.322.547.652,1.089,1.036,1.73l1.807-3.889c-2.3-.193-3.307-1.863-4.379-3.654l-2.442,5.232M35.644,33.258a29.239,29.239,0,0,0-8.789,0l4.392,3.4,4.4-3.4" transform="translate(0 0)"/><path d="M259.238,220.245a9.073,9.073,0,1,1-9.027-9.094,9.1,9.1,0,0,1,9.027,9.094m-2.43.018a6.642,6.642,0,1,0-6.682,6.609,6.644,6.644,0,0,0,6.682-6.609" transform="translate(-192.345 -168.457)"/></g></svg>