<svg xmlns="http://www.w3.org/2000/svg" xmlns:xlink="http://www.w3.org/1999/xlink" width="96.033" height="60.889" viewBox="0 0 96.033 60.889"><defs><clipPath id="a"><rect width="33.209" height="44.183" fill="none" stroke="#000" stroke-width="0.5"/></clipPath></defs><g transform="translate(-68.966 -35.467)"><g transform="translate(68.966 35.467)"><ellipse cx="28.582" cy="28.582" rx="28.582" ry="28.582" transform="translate(2.495 3.726)" fill="#ff0"/><g transform="translate(0)"><path d="M237.338,140.611a.92.92,0,0,0,.393-.754.9.9,0,0,0-.273-.646,1.292,1.292,0,0,0-.927-.34h-.006l-4.085.013a1.075,1.075,0,0,0-1.2.993.924.924,0,0,0,.4.754,1.367,1.367,0,0,0,.8.232h.006l4.083-.013a1.366,1.366,0,0,0,.807-.237Z" transform="translate(-182.395 -109.536)"/><path d="M219.139,85.332a1.026,1.026,0,0,0,.268.034,1.417,1.417,0,0,0,.71-.207l3.53-2.053a1.364,1.364,0,0,0,.579-.608.93.93,0,0,0-.036-.851.91.91,0,0,0-.56-.425,1.294,1.294,0,0,0-.978.173l-3.53,2.053a1.076,1.076,0,0,0-.543,1.46A.91.91,0,0,0,219.139,85.332Z" transform="translate(-172.311 -64.038)"/><path d="M184.33,44.609a.9.9,0,0,0,.45.12.971.971,0,0,0,.4-.089,1.357,1.357,0,0,0,.6-.583l2.03-3.542a1.367,1.367,0,0,0,.2-.817.914.914,0,0,0-1.153-.807,1.3,1.3,0,0,0-.76.638l-2.03,3.544a1.076,1.076,0,0,0,.26,1.536Z" transform="translate(-145.029 -30.651)"/><path d="M137.365,30h0a.924.924,0,0,0,.754-.4,1.358,1.358,0,0,0,.232-.807l-.013-4.083a1.352,1.352,0,0,0-.239-.807.928.928,0,0,0-.752-.393h0a.924.924,0,0,0-.754.4,1.353,1.353,0,0,0-.232.807l.013,4.083a1.076,1.076,0,0,0,.991,1.2Z" transform="translate(-107.556 -18.544)"/><path d="M81.948,45.15a.885.885,0,0,0,.452-.125.925.925,0,0,0,.452-.722,1.365,1.365,0,0,0-.2-.815L80.6,39.958a1.364,1.364,0,0,0-.608-.579.93.93,0,0,0-.851.036.91.91,0,0,0-.425.56,1.294,1.294,0,0,0,.173.978l2.053,3.53a1.214,1.214,0,0,0,1.008.667Z" transform="translate(-62.058 -30.993)"/><path d="M37.021,83.871l3.544,2.03a1.431,1.431,0,0,0,.706.2.919.919,0,0,0,.862-1.314,1.357,1.357,0,0,0-.583-.6l-3.544-2.03a1.367,1.367,0,0,0-.817-.2.914.914,0,0,0-.807,1.153,1.308,1.308,0,0,0,.638.76Z" transform="translate(-28.671 -64.641)"/><path d="M21.278,140.053a.913.913,0,0,0,0,1.3,1.292,1.292,0,0,0,.927.34h.006l4.085-.013a1.073,1.073,0,0,0,1.2-.993.9.9,0,0,0-.272-.646,1.3,1.3,0,0,0-.925-.338H26.3l-4.083.013a1.3,1.3,0,0,0-.932.344Z" transform="translate(-16.572 -110.191)"/><path d="M37.472,191.152a1.027,1.027,0,0,0,.268.034,1.417,1.417,0,0,0,.71-.207l3.53-2.053a1.364,1.364,0,0,0,.579-.608.924.924,0,0,0-.036-.851.91.91,0,0,0-.56-.425,1.294,1.294,0,0,0-.978.173l-3.53,2.053a1.364,1.364,0,0,0-.579.608.924.924,0,0,0,.036.851A.91.91,0,0,0,37.472,191.152Z" transform="translate(-29.019 -147.506)"/><path d="M79.922,227.073a.908.908,0,0,0,.7.087,1.309,1.309,0,0,0,.76-.638l2.03-3.544a1.076,1.076,0,0,0-.26-1.536.911.911,0,0,0-.7-.087,1.3,1.3,0,0,0-.758.638l-2.03,3.544a1.367,1.367,0,0,0-.2.817.923.923,0,0,0,.456.718Z" transform="translate(-62.677 -174.572)"/><path d="M138.158,233.742h0a.924.924,0,0,0-.754.4,1.353,1.353,0,0,0-.232.807l.013,4.083a1.352,1.352,0,0,0,.239.807.928.928,0,0,0,.752.393h0a.9.9,0,0,0,.646-.273,1.308,1.308,0,0,0,.34-.934l-.013-4.085a1.076,1.076,0,0,0-.991-1.2Z" transform="translate(-108.195 -184.367)"/><path d="M186.76,226.147a1.376,1.376,0,0,0,.608.579.981.981,0,0,0,.4.087.909.909,0,0,0,.879-.682,1.294,1.294,0,0,0-.173-.978l-2.053-3.53a1.076,1.076,0,0,0-1.46-.543.911.911,0,0,0-.425.56,1.294,1.294,0,0,0,.173.978l2.053,3.53Z" transform="translate(-145.525 -174.283)"/><path d="M219.5,188.286l3.542,2.03a1.437,1.437,0,0,0,.7.2.689.689,0,0,0,.114-.006.914.914,0,0,0,.807-1.153,1.308,1.308,0,0,0-.638-.76l-3.544-2.03a1.076,1.076,0,0,0-1.536.26.924.924,0,0,0-.032.851,1.357,1.357,0,0,0,.583.6Z" transform="translate(-172.607 -147.001)"/><path d="M110.931,77.89l3.061-16.719a1.027,1.027,0,1,0-2.021-.37l-2.989,16.322-7.769,5.807a1.028,1.028,0,0,0,.617,1.85,1.014,1.014,0,0,0,.615-.2l8.09-6.05a1.024,1.024,0,0,0,.395-.638Z" transform="translate(-79.508 -47.293)"/><path d="M51.833,8.825A30.2,30.2,0,0,0,30.414,0h-.12a30.412,30.412,0,0,0-21.3,52,30.2,30.2,0,0,0,21.419,8.825h.12a30.484,30.484,0,0,0,27.659-18.01,1.027,1.027,0,1,0-1.876-.839A28.43,28.43,0,0,1,30.52,58.771h-.112A28.36,28.36,0,0,1,10.28,10.437,28.18,28.18,0,0,1,30.3,2.053h.112A28.381,28.381,0,0,1,57.688,38.188a1.028,1.028,0,1,0,1.977.562A30.459,30.459,0,0,0,51.833,8.825Z" transform="translate(0.001 0)"/></g></g><g transform="translate(131.791 49.935)"><g clip-path="url(#a)"><path d="M2.8,44.184c-.093-.032-.184-.07-.278-.094a3.317,3.317,0,0,1,.707-6.535c.243-.009.486,0,.794,0,0-.222,0-.416,0-.611a19.913,19.913,0,0,1,.329-4.891,12.464,12.464,0,0,1,7.716-8.925c.08-.033.162-.059.242-.091a.992.992,0,0,0,.74-.951,1.014,1.014,0,0,0-.759-.939,12.493,12.493,0,0,1-6.8-5.926,11.879,11.879,0,0,1-1.339-4.159c-.06-.465.131-.783.512-.853s.651.179.76.643c.173.74.37,1.474.532,2.216.083.379.278.481.659.48,4.529-.014,9.059-.009,13.588-.009.7,0,1,.2.991.659-.011.441-.31.635-.982.635H6.692c.482.663.866,1.263,1.322,1.8a10.905,10.905,0,0,0,4,3,5.146,5.146,0,0,0,1.1.336A3.244,3.244,0,0,1,15.8,23.762c-.158,1.007-.329,2.013-.5,3.018A3.269,3.269,0,0,1,12.009,29.5a13.558,13.558,0,0,0-2.611.174,5.22,5.22,0,0,0-4.069,4.908c-.052.971-.009,1.946-.009,2.964h.548q7.484,0,14.969,0a1.79,1.79,0,0,1,.51.047.581.581,0,0,1,.438.657.591.591,0,0,1-.543.575,3.041,3.041,0,0,1-.474.013q-8.671,0-17.342,0a2.024,2.024,0,0,0-.289,4.036c.1.008.2.007.3.007q13.157,0,26.314,0a2.023,2.023,0,1,0,.069-4.042c-1.8-.007-3.595,0-5.392,0-.129,0-.259,0-.388,0a.648.648,0,1,1,.009-1.289c1.107-.009,2.214,0,3.322,0h.517c-.062-1.918.307-3.847-.839-5.56A5.284,5.284,0,0,0,22.618,29.5c-.646-.022-1.3.021-1.937-.055a3.155,3.155,0,0,1-2.78-2.663c-.173-1-.345-2.01-.5-3.018a3.248,3.248,0,0,1,2.726-3.8,4.232,4.232,0,0,0,.941-.277A11.142,11.142,0,0,0,26.2,15.248c.067-.108.126-.221.213-.376a3.408,3.408,0,0,0-.347-.039c-.82,0-1.639,0-2.459,0-.572,0-.882-.239-.876-.662.006-.4.3-.63.853-.631,1.035,0,2.071-.014,3.106.007.3.006.455-.093.516-.376a24.354,24.354,0,0,0,.6-2.9c.105-1.181.025-2.378.025-3.6H5.311c0,.419.005.832,0,1.244-.008.48-.244.747-.645.744S4.03,8.381,4.019,7.9c-.009-.4,0-.8,0-1.227-.436-.033-.85-.037-1.255-.1A3.274,3.274,0,0,1,.008,3.1,3.286,3.286,0,0,1,3.234.012C4.888-.01,6.542.006,8.2.006q10.784,0,21.569,0a3.316,3.316,0,1,1,.193,6.629c-.241.008-.482,0-.773,0,0,.857,0,1.672,0,2.487a12.68,12.68,0,0,1-.748,4.438,12.456,12.456,0,0,1-7.277,7.494c-.093.038-.188.072-.282.105a.977.977,0,0,0-.719.923.993.993,0,0,0,.74.951,12.412,12.412,0,0,1,8.077,9.651,15.43,15.43,0,0,1,.2,2.358c.034.789.012,1.581.015,2.372a.445.445,0,0,0,.034.1c.386.028.787.028,1.178.089a3.267,3.267,0,0,1,2.8,3.141,3.312,3.312,0,0,1-2.515,3.34c-.095.024-.185.063-.278.095ZM16.623,1.3H10.282c-2.315,0-4.63-.005-6.945,0A2,2,0,0,0,1.312,3.051,2.024,2.024,0,0,0,3.487,5.344q13.113,0,26.226,0c.086,0,.173,0,.259,0A1.994,1.994,0,0,0,31.7,4.224,2.012,2.012,0,0,0,29.822,1.3q-6.6-.01-13.2,0m2.26,21.125-.16.008a6.941,6.941,0,0,0-.031,1.164c.138,1.009.319,2.013.5,3.016a1.861,1.861,0,0,0,1.586,1.546,5.655,5.655,0,0,0,.988.043,7.517,7.517,0,0,1,2.971.382c.575.228,1.121.531,1.681.8a.185.185,0,0,0,0-.075,2.1,2.1,0,0,0-.1-.189,11.045,11.045,0,0,0-5.6-4.766,2.53,2.53,0,0,1-1.826-1.931m-4.4.016-.165-.019a2.572,2.572,0,0,1-1.861,1.947,11,11,0,0,0-5.54,4.707,1.593,1.593,0,0,0-.106.219,16.567,16.567,0,0,1,2.472-.913,16.375,16.375,0,0,1,2.74-.174,1.951,1.951,0,0,0,2-1.708c.172-.96.349-1.92.48-2.886a7.316,7.316,0,0,0-.022-1.173" transform="translate(0 0)" stroke="#000" stroke-width="0.5"/></g></g></g></svg>