<svg xmlns="http://www.w3.org/2000/svg" width="223.713" height="47.913" viewBox="0 0 223.713 47.913">
  <g id="グループ_785" data-name="グループ 785" transform="translate(-1.08 -198.933)">
    <path id="パス_885" data-name="パス 885" d="M6.951,278.5c-.971.216-2.2.41-3.343.539H3.457a1.124,1.124,0,0,1-1.165-1.186,1.07,1.07,0,0,1,1.036-1.1,52.379,52.379,0,0,0,5.824-.842,1.332,1.332,0,0,1,.281-.022,1.216,1.216,0,0,1,1.251,1.208,1.2,1.2,0,0,1-.475.949,10.1,10.1,0,0,0-4.185,7.981c0,2.7,1.38,4.012,3.387,4.012,2.977,0,4.94-2.243,4.94-6.795a22,22,0,0,0-.841-6.277,1.7,1.7,0,0,1-.044-.3,1.192,1.192,0,0,1,1.273-1.122,1.243,1.243,0,0,1,1.165.734,22.883,22.883,0,0,0,4.508,6.212,1.422,1.422,0,0,1,.5,1.035,1.3,1.3,0,0,1-1.251,1.251,1.233,1.233,0,0,1-.992-.539,20.628,20.628,0,0,1-2.416-3.646l-.043.022a17.78,17.78,0,0,1,.324,3.365c0,5.436-2.847,8.5-7.075,8.5-3.257,0-5.845-1.963-5.845-6.406a10.422,10.422,0,0,1,3.365-7.528Z" transform="translate(-0.846 -75.084)"/>
    <path id="パス_886" data-name="パス 886" d="M68.946,273.689a1.254,1.254,0,0,1,2.5,0,37.761,37.761,0,0,0,.5,6.32,29.557,29.557,0,0,1,4.25-1.682,1.221,1.221,0,0,1,.388-.065A1.174,1.174,0,0,1,77.7,279.47a1.06,1.06,0,0,1-.8,1.057,25.459,25.459,0,0,0-5.673,2.5c-1.855,1.208-2.5,2.394-2.5,3.494,0,1.338.884,2.028,4.314,2.028a23.709,23.709,0,0,0,4.466-.388,1.324,1.324,0,0,1,.28-.022,1.137,1.137,0,0,1,1.164,1.186,1.187,1.187,0,0,1-.971,1.208,24.9,24.9,0,0,1-4.961.41c-4.53,0-6.795-1.38-6.795-4.292,0-1.769.82-3.516,3.516-5.35a34.369,34.369,0,0,1-.8-7.615" transform="translate(-36.052 -73.419)"/>
    <path id="パス_887" data-name="パス 887" d="M126.933,282.618c.216-.5.367-.906.561-1.488a.985.985,0,0,1,.928-.691.919.919,0,0,1,.971.863,1.079,1.079,0,0,1-.043.259,17.833,17.833,0,0,1-1.51,3.559,1.748,1.748,0,0,1-1.489.884,1.392,1.392,0,0,1-1.38-1.035,14.665,14.665,0,0,1-.518-3.71,28.91,28.91,0,0,1,.8-6.342,1.217,1.217,0,0,1,1.229-.884,1.065,1.065,0,0,1,1.186.971,1.485,1.485,0,0,1-.043.28,30.079,30.079,0,0,0-.8,5.759,15.053,15.053,0,0,0,.065,1.575Zm5.565-7.938a1.18,1.18,0,0,1,1.295-1.1,1.212,1.212,0,0,1,1.273,1.035,52.909,52.909,0,0,1,.453,6.946c0,4.681-1.682,7.938-4.7,10.246a1.492,1.492,0,0,1-.906.345,1.22,1.22,0,0,1-1.208-1.208,1.411,1.411,0,0,1,.561-1.078,9.994,9.994,0,0,0,3.667-8.3,55.385,55.385,0,0,0-.432-6.751Z" transform="translate(-68.114 -74)"/>
    <path id="パス_888" data-name="パス 888" d="M183.465,274.658a1.16,1.16,0,0,1,1.251-1.079,1.126,1.126,0,0,1,1.251,1.079c0,.28-.043.733-.065.971-.216,3.193-.388,6.579-.388,9.75,0,2.89.884,3.667,2.416,3.667,2.005,0,3.882-.819,5.867-3.278a1.307,1.307,0,0,1,1.036-.539,1.245,1.245,0,0,1,1.273,1.186,1.278,1.278,0,0,1-.3.8c-2.459,3.063-5.069,4.228-7.873,4.228-3.214,0-4.919-1.6-4.919-6.083,0-3.43.216-7.528.453-10.7m6.946,2.416a.9.9,0,0,1,1.51-.582,10.766,10.766,0,0,1,1.683,1.877.9.9,0,0,1,.194.582.88.88,0,0,1-.863.863.864.864,0,0,1-.712-.41,15.656,15.656,0,0,0-1.6-1.834.766.766,0,0,1-.216-.5m2.135-1.726a.866.866,0,0,1,.906-.8,1.037,1.037,0,0,1,.647.259,10.816,10.816,0,0,1,1.661,1.769,1,1,0,0,1,.237.647.843.843,0,0,1-.863.82.938.938,0,0,1-.755-.388c-.5-.625-1.1-1.273-1.6-1.79a.715.715,0,0,1-.237-.518" transform="translate(-100.359 -73.999)"/>
    <path id="パス_889" data-name="パス 889" d="M240.409,285.461a17.291,17.291,0,0,1,5.8-1.143c2.783,0,4.379,1.316,4.379,3.279,0,2.2-1.575,3.537-3.8,3.537a8.128,8.128,0,0,1-1.747-.172,1.075,1.075,0,0,1-.884-1.057,1,1,0,0,1,.992-1.035,1.669,1.669,0,0,1,.324.043,4.339,4.339,0,0,0,1.229.173c1.143,0,1.725-.539,1.725-1.488,0-.8-.582-1.359-2.243-1.359a15.5,15.5,0,0,0-5.155,1.057l2.631,7.765a1.072,1.072,0,0,1,.065.345,1.029,1.029,0,0,1-1.078.949.935.935,0,0,1-.928-.648l-2.61-7.679c-.8.324-1.64.69-2.567,1.122a1.152,1.152,0,0,1-.431.108,1,1,0,0,1-.927-1.035.918.918,0,0,1,.561-.863q1.488-.679,2.718-1.165l-.992-2.934a.637.637,0,0,1-.043-.28c0-.518.561-.863,1.122-.863a.889.889,0,0,1,.906.582Zm4.875-3.343a1.144,1.144,0,0,1,.475.863,1.074,1.074,0,0,1-1.079,1.035,1.164,1.164,0,0,1-.733-.28,14.782,14.782,0,0,0-1.7-1.186.884.884,0,0,1-.475-.755,1.07,1.07,0,0,1,1.078-1.014,1.32,1.32,0,0,1,.6.151,11.536,11.536,0,0,1,1.834,1.187" transform="translate(-129.091 -77.965)"/>
    <path id="パス_890" data-name="パス 890" d="M295.27,273.067a1.126,1.126,0,0,1,1.165-.927A1.071,1.071,0,0,1,297.6,273.2a1.231,1.231,0,0,1-.022.28c-.173.82-.388,1.683-.625,2.546.647-.108,1.294-.216,1.9-.323a.961.961,0,0,1,.237-.022,1.127,1.127,0,0,1,.151,2.243c-.927.194-1.984.367-3.042.518a39.61,39.61,0,0,1-3.322,7.27,1.426,1.426,0,0,1-1.208.776,1.179,1.179,0,0,1-1.208-1.143,1.342,1.342,0,0,1,.237-.755,33.073,33.073,0,0,0,2.912-5.867c-.8.086-1.575.129-2.244.151a1.1,1.1,0,0,1-1.122-1.186,1.053,1.053,0,0,1,1.036-1.122c.971-.043,2.049-.108,3.15-.216.324-1.1.625-2.2.841-3.279m3.861,18.076c-2.567,0-4.12-1.122-4.12-3.128,0-1.725,1.466-3.15,4.227-3.15a9.723,9.723,0,0,1,1.078.065,15.683,15.683,0,0,1-.215-2.286,11.672,11.672,0,0,1,.151-2.092,1.052,1.052,0,0,1,1.122-.863,1.087,1.087,0,0,1,1.208.993c0,.065-.022.108-.022.173a12.494,12.494,0,0,0-.151,1.769,16.394,16.394,0,0,0,.3,2.8,15.02,15.02,0,0,1,4.055,1.877,1.212,1.212,0,0,1,.582,1.014,1.189,1.189,0,0,1-1.143,1.187,1.376,1.376,0,0,1-.733-.259,13.38,13.38,0,0,0-2.459-1.381c-.043,2.416-1.812,3.279-3.882,3.279m1.531-3.516a4.33,4.33,0,0,0-.022-.539,7.606,7.606,0,0,0-1.359-.129c-1.51,0-1.985.475-1.985,1.057,0,.626.431.992,1.834.992.992,0,1.531-.431,1.531-1.38m6.644-10.074a1.339,1.339,0,0,1,.712,1.122,1.189,1.189,0,0,1-1.143,1.186,1.249,1.249,0,0,1-.647-.194,21.064,21.064,0,0,0-3.085-1.489,1.042,1.042,0,0,1-.776-.971,1.22,1.22,0,0,1,1.229-1.186,1.466,1.466,0,0,1,.41.065,13.659,13.659,0,0,1,3.3,1.467" transform="translate(-159.407 -73.207)"/>
    <path id="パス_891" data-name="パス 891" d="M350.286,277.468a1.168,1.168,0,0,1,1.273,1.143c0,.3-.087,1.359-.087,2.028,0,7.55,1.532,9.534,2.438,9.534.518,0,.992-.345,1.4-1.963a1.123,1.123,0,0,1,1.1-.927,1.187,1.187,0,0,1,1.23,1.165,1.067,1.067,0,0,1-.043.366c-.8,2.891-2.179,3.948-3.624,3.948-3.128,0-5.026-3.861-5.026-12.058,0-.992.043-1.639.086-2.2a1.182,1.182,0,0,1,1.251-1.036m16.264,9.146a1.267,1.267,0,0,1,.086.453,1.163,1.163,0,0,1-1.208,1.143,1.188,1.188,0,0,1-1.143-.82,19.082,19.082,0,0,0-3.732-5.867,1.129,1.129,0,0,1-.367-.8,1.194,1.194,0,0,1,1.229-1.1,1.423,1.423,0,0,1,.949.41,17.021,17.021,0,0,1,4.185,6.579" transform="translate(-191.732 -76.141)"/>
    <path id="パス_892" data-name="パス 892" d="M408.376,289.935a1.3,1.3,0,0,1-1.165.69,1.121,1.121,0,0,1-1.186-1.078,1.454,1.454,0,0,1,.194-.669,36.359,36.359,0,0,0,3.3-8.434c-.884.108-1.748.259-2.567.431a1.23,1.23,0,0,1-.281.022,1.036,1.036,0,0,1-1.035-1.1,1.119,1.119,0,0,1,.971-1.122c1.1-.216,2.286-.366,3.43-.5.258-1.316.475-2.653.625-3.969a1.209,1.209,0,0,1,2.395.064v.151c-.13,1.165-.324,2.373-.561,3.559.431-.022.82-.022,1.165-.022,2.76,0,3.775,1.251,3.775,4.638a20.1,20.1,0,0,1-.582,5.155c-.69,2.481-1.661,3.365-3.84,3.365a9.939,9.939,0,0,1-1.466-.108,1.155,1.155,0,0,1-1.057-1.165,1.11,1.11,0,0,1,1.1-1.186c.044,0,.108.021.173.021a10.116,10.116,0,0,0,1.186.086c.755,0,1.143-.237,1.51-1.51a17.3,17.3,0,0,0,.56-4.681c0-1.941-.366-2.459-1.4-2.459-.475,0-1.014.022-1.6.065a38.973,38.973,0,0,1-3.645,9.75m15.876-8.715a1.643,1.643,0,0,1,.172.733,1.238,1.238,0,0,1-1.251,1.251,1.345,1.345,0,0,1-1.187-.82,20.06,20.06,0,0,0-3.063-4.443,1.183,1.183,0,0,1-.345-.777,1.2,1.2,0,0,1,1.251-1.078,1.442,1.442,0,0,1,.992.41,19.192,19.192,0,0,1,3.43,4.724" transform="translate(-222.948 -73.789)"/>
    <path id="パス_893" data-name="パス 893" d="M469.784,283.372a10.111,10.111,0,0,1,6.255-2.308c3.387,0,5.479,1.855,5.479,4.293,0,3.322-2.739,5.695-7.938,6.3-.065,0-.129.022-.195.022a1.177,1.177,0,0,1-.086-2.351c4.228-.5,5.695-2.092,5.695-3.948,0-1.122-.884-2.157-2.955-2.157a9.15,9.15,0,0,0-6.687,3.279,1.4,1.4,0,0,1-1.1.518,1.242,1.242,0,0,1-1.273-1.251,1.051,1.051,0,0,1,.022-.259c.216-1.6.734-4.422,1.359-7.377a1.15,1.15,0,0,1,1.186-.906,1.111,1.111,0,0,1,1.23,1.013.717.717,0,0,1-.022.216c-.41,2.006-.776,3.646-1.014,4.9Zm6.6-8.823a1.3,1.3,0,0,1,.755,1.186A1.159,1.159,0,0,1,476,276.922a1.548,1.548,0,0,1-.647-.151,31.259,31.259,0,0,0-3.516-1.337,1.075,1.075,0,0,1-.82-1.035,1.27,1.27,0,0,1,1.273-1.251,2.407,2.407,0,0,1,.366.044,17.66,17.66,0,0,1,3.732,1.359" transform="translate(-256.726 -73.762)"/>
    <path id="パス_894" data-name="パス 894" d="M4.217,352.516a1.3,1.3,0,0,1-1.165.69,1.121,1.121,0,0,1-1.186-1.078,1.454,1.454,0,0,1,.194-.669,36.383,36.383,0,0,0,3.3-8.434c-.884.108-1.748.259-2.567.431a1.231,1.231,0,0,1-.28.022,1.036,1.036,0,0,1-1.035-1.1,1.119,1.119,0,0,1,.971-1.122c1.1-.216,2.286-.367,3.43-.5.259-1.316.475-2.653.625-3.969a1.13,1.13,0,0,1,1.186-1.014A1.126,1.126,0,0,1,8.9,336.856v.151c-.129,1.165-.324,2.373-.561,3.559.432-.022.82-.022,1.165-.022,2.761,0,3.775,1.251,3.775,4.638a20.092,20.092,0,0,1-.582,5.155c-.69,2.481-1.661,3.365-3.84,3.365a9.94,9.94,0,0,1-1.467-.108A1.154,1.154,0,0,1,6.33,352.43a1.111,1.111,0,0,1,1.1-1.187c.043,0,.108.022.173.022a10.214,10.214,0,0,0,1.186.087c.755,0,1.143-.238,1.51-1.51a17.292,17.292,0,0,0,.561-4.681c0-1.941-.367-2.459-1.4-2.459-.475,0-1.014.022-1.6.065a39.01,39.01,0,0,1-3.645,9.75m15.66-8.715a1.643,1.643,0,0,1,.173.733,1.238,1.238,0,0,1-1.251,1.251,1.342,1.342,0,0,1-1.186-.82,20.084,20.084,0,0,0-3.063-4.444,1.184,1.184,0,0,1-.345-.776,1.2,1.2,0,0,1,1.251-1.078,1.441,1.441,0,0,1,.992.41,19.187,19.187,0,0,1,3.43,4.724m-3.948-7.442a.9.9,0,0,1,1.51-.583,10.8,10.8,0,0,1,1.683,1.877.9.9,0,0,1,.194.582.88.88,0,0,1-.863.863.864.864,0,0,1-.712-.41,15.688,15.688,0,0,0-1.6-1.833.768.768,0,0,1-.216-.5m2.136-1.726a.866.866,0,0,1,.906-.8,1.035,1.035,0,0,1,.647.259,10.8,10.8,0,0,1,1.661,1.769,1.006,1.006,0,0,1,.238.648.843.843,0,0,1-.863.82.939.939,0,0,1-.755-.388c-.5-.625-1.1-1.273-1.6-1.791a.712.712,0,0,1-.237-.518" transform="translate(-0.397 -107.18)"/>
    <path id="パス_895" data-name="パス 895" d="M66.945,346.482a3.627,3.627,0,0,1,1.963-.561c1.984,0,3.063,1.186,3.214,4.551.108,2.351.625,2.675,1.445,2.675.971,0,1.791-.841,2.546-2.8a1.224,1.224,0,0,1,1.165-.82,1.246,1.246,0,0,1,1.295,1.165,1.722,1.722,0,0,1-.108.518c-1.122,2.977-2.74,4.379-5.069,4.379-2.244,0-3.624-1.208-3.775-4.9-.086-2.136-.41-2.589-1.295-2.589-1.143,0-2.307,1.057-3.365,3.257-.475.992-1.1,2.308-1.575,3.344a1.249,1.249,0,0,1-1.144.733,1.228,1.228,0,0,1-1.294-1.143,1.354,1.354,0,0,1,.108-.475c1.9-4.573,4.637-10.419,7.118-15.013a1.2,1.2,0,0,1,1.1-.647,1.277,1.277,0,0,1,1.359,1.122,1.15,1.15,0,0,1-.129.518l-3.6,6.665Z" transform="translate(-33.145 -109.559)"/>
    <path id="パス_896" data-name="パス 896" d="M121.593,336.12a1.135,1.135,0,0,1,1.251,1.057.967.967,0,0,1-.022.237,41.183,41.183,0,0,0-1.143,8.908,56.454,56.454,0,0,0,.474,6.407c0,.065.022.129.022.194A1.179,1.179,0,0,1,120.924,354a1.143,1.143,0,0,1-1.207-.971,41.832,41.832,0,0,1-.5-6.73,42.618,42.618,0,0,1,1.187-9.34,1.123,1.123,0,0,1,1.186-.842m10.656,3.969c.842-.086,1.64-.216,2.373-.345a1.322,1.322,0,0,1,.28-.022.978.978,0,0,1,1.013,1.036,1.139,1.139,0,0,1-.949,1.143c-.841.173-1.769.3-2.7.41.022,1.855.065,3.71.259,5.544a15.094,15.094,0,0,1,3.6,2.006,1.309,1.309,0,0,1,.582,1.057,1.169,1.169,0,0,1-1.143,1.165,1.369,1.369,0,0,1-.819-.324,16.76,16.76,0,0,0-2.136-1.424c-.238,1.79-1.467,3.085-4.142,3.085-2.416,0-3.926-1.208-3.926-3.149,0-1.79,1.445-3.128,4.25-3.128a11.108,11.108,0,0,1,1.424.108c-.13-1.575-.173-3.149-.195-4.724-.927.065-1.833.086-2.675.086a10.333,10.333,0,0,1-1.187-.043,1.088,1.088,0,0,1-.992-1.144,1.018,1.018,0,0,1,1.036-1.078c.388,0,.755.043,1.143.043.841,0,1.726-.022,2.653-.086v-3.214a1.13,1.13,0,0,1,2.243,0Zm-1.919,9.319a6.04,6.04,0,0,0-1.531-.237c-1.51,0-1.985.475-1.985,1.1,0,.669.582,1.014,1.661,1.014a1.668,1.668,0,0,0,1.855-1.876m2.5-13.654a.855.855,0,0,1,.884-.755.823.823,0,0,1,.733.431,13.907,13.907,0,0,1,1.014,2.33,1.009,1.009,0,0,1,.043.345.81.81,0,0,1-.842.82.858.858,0,0,1-.82-.6,17.976,17.976,0,0,0-.927-2.222.738.738,0,0,1-.086-.345m2.438-1.014a.794.794,0,0,1,.841-.712.915.915,0,0,1,.777.431,12.666,12.666,0,0,1,1.057,2.179.993.993,0,0,1,.086.41.841.841,0,0,1-.842.841.867.867,0,0,1-.82-.6,17.937,17.937,0,0,0-1.014-2.2.742.742,0,0,1-.086-.346" transform="translate(-65.232 -107.286)"/>
    <path id="パス_897" data-name="パス 897" d="M180.914,344.026c3-2.955,4.659-4.1,6.234-4.1,1.876,0,2.718,1.229,2.718,2.891v.3l-.41,7.593v.086c0,.453.173.561.539.561.453,0,1.078-.216,2.071-1.273a1.315,1.315,0,0,1,.971-.453,1.216,1.216,0,0,1,1.208,1.186,1.335,1.335,0,0,1-.388.906,5.458,5.458,0,0,1-4.055,2.135c-1.833,0-2.848-.776-2.848-2.674v-.3l.389-7.334v-.216c0-.647-.194-.927-.69-.927-.906,0-2.481,1.229-5.8,4.68l-.021,7.291a1.091,1.091,0,0,1-1.165,1.1,1.074,1.074,0,0,1-1.144-1.1l.065-4.853-1.639,2.524a1.092,1.092,0,0,1-.906.54,1.2,1.2,0,0,1-1.186-1.122,1.109,1.109,0,0,1,.194-.6,58.516,58.516,0,0,0,3.6-6.04l.043-1.316-2.567.475a.6.6,0,0,1-.195.022,1.043,1.043,0,0,1-.971-1.122,1.023,1.023,0,0,1,.842-1.078l2.912-.5.043-3.387a1.074,1.074,0,0,1,1.165-1.014,1.033,1.033,0,0,1,1.144,1.014L181,340.984a.688.688,0,0,1,.733.691c0,.388-.151.776-.776,1.467Z" transform="translate(-95.867 -108.872)"/>
    <path id="パス_898" data-name="パス 898" d="M242.227,345.66a7.453,7.453,0,0,1,2.739-.539c3.365,0,5.565,1.834,5.565,4.832,0,3.775-2.718,6.191-6.924,6.191-2.955,0-4.832-1.51-4.832-3.43a2.685,2.685,0,0,1,3-2.761c2.071,0,3.516,1.38,4.142,3.538a3.7,3.7,0,0,0,2.093-3.516c0-1.531-1.208-2.761-3.279-2.761-2.178,0-4.292.755-6.946,2.8a1.492,1.492,0,0,1-.905.345,1.216,1.216,0,0,1-1.208-1.186,1.269,1.269,0,0,1,.539-1.014,48.547,48.547,0,0,0,7.291-7.291c-1.057.173-2.459.324-3.538.41-.086,0-.647.065-.927.065a1.1,1.1,0,0,1-1.078-1.165,1.081,1.081,0,0,1,1.057-1.122c1.747-.086,4.034-.367,6.1-.69a1.419,1.419,0,0,1,.3-.022,1.4,1.4,0,0,1,1.488,1.359,1.715,1.715,0,0,1-.388,1.014,47.462,47.462,0,0,1-4.336,4.875Zm1.424,8.326c-.367-1.38-1.014-2.114-1.92-2.114a.79.79,0,0,0-.777.841c0,.712.82,1.273,2.524,1.273Z" transform="translate(-129.355 -109.665)"/>
    <path id="パス_899" data-name="パス 899" d="M296.318,366.437a3.614,3.614,0,1,1-3.6-3.559,3.563,3.563,0,0,1,3.6,3.559m-5.738,0a2.125,2.125,0,1,0,2.136-2.114,2.1,2.1,0,0,0-2.136,2.114" transform="translate(-158.772 -123.172)"/>
  </g>
</svg>
